<?xml version="1.0" encoding="UTF-8"?>
<svg id="Layer_2" data-name="Layer 2" xmlns="http://www.w3.org/2000/svg" viewBox="0 0 316.27 136.56">
  <defs>
    <style>
      .cls-1 {
        opacity: .1;
      }

      .cls-2 {
        fill: #fff;
      }

      .cls-3 {
        fill: #18496b;
      }
    </style>
  </defs>
  <g id="Layer_1-2" data-name="Layer 1">
    <g>
      <path class="cls-2" d="M33.07,70.44c5.1,0,9.87,1.25,14.18,3.31,7.26-11.2,19.81-18.66,34.15-18.66,3.01,0,5.92,.37,8.74,.99,7.26-11.16,19.8-18.57,34.11-18.57,8.82,0,16.93,2.87,23.6,7.64C150.35,19.84,171.44,0,197.4,0s46.63,19.45,49.48,44.39c5.6-2.77,11.83-4.46,18.5-4.46,23.21,0,42.02,18.81,42.02,42.02,0,1.18-.25,2.3-.35,3.46,5.65,5.36,9.22,12.89,9.22,21.29,0,16.25-13.17,29.41-29.41,29.41-.1,0-.19-.03-.3-.03-1.51,.28-3.05,.48-4.63,.48H39.16c-1.04,0-2.03-.18-3.03-.31-1.02,.1-2.01,.31-3.06,.31C14.81,136.56,.01,121.76,.01,103.5s14.8-33.06,33.06-33.06Z"/>
      <g class="cls-1">
        <path class="cls-3" d="M59.02,61.93c.6-.4,1.19-.8,1.81-1.16-.34,.48-.73,.93-1.05,1.43-.24-.11-.51-.16-.75-.27h-.01Z"/>
        <path class="cls-3" d="M101.73,44.43c.63-.42,1.27-.84,1.93-1.24-.32,.46-.69,.87-.99,1.34-.3-.07-.63-.05-.93-.11h-.01Z"/>
        <path class="cls-3" d="M17.65,74.42c-3.2,5.09-5.13,11.07-5.13,17.52,0,18.26,14.8,33.06,33.06,33.06,1.05,0,2.03-.21,3.06-.31,1,.12,1.99,.31,3.03,.31h242.77c1.59,0,3.13-.19,4.63-.48,.1,0,.2,.03,.3,.03,4.59,0,8.87-1.14,12.74-3.01-5.11,8.68-14.46,14.57-25.26,14.57-.1,0-.19-.03-.3-.03-1.51,.28-3.05,.48-4.63,.48H39.15c-1.04,0-2.03-.18-3.03-.31-1.02,.1-2.01,.31-3.06,.31C14.8,136.56,0,121.76,0,103.5c0-12.66,7.2-23.52,17.64-29.08h.01Z"/>
      </g>
      <g class="cls-1">
        <path class="cls-3" d="M85.19,68.4c.91-7.05,4.48-13.05,9.51-17.3-2.53,3.54-4.35,7.66-4.94,12.28-1.92,14.94,8.64,28.6,23.58,30.52,7.89,1.01,15.37-1.52,21.01-6.28-5.65,7.91-15.26,12.62-25.58,11.29-14.94-1.92-25.49-15.58-23.58-30.52h0Z"/>
      </g>
      <g class="cls-1">
        <path class="cls-3" d="M247.53,42.72c6.61-2.61,13.59-2.38,19.74-.02-4.33-.51-8.81-.11-13.14,1.6-14.01,5.53-20.88,21.37-15.35,35.38,2.92,7.4,8.75,12.73,15.64,15.37-9.66-1.13-18.42-7.28-22.24-16.95-5.53-14.01,1.34-29.85,15.35-35.38Z"/>
      </g>
    </g>
  </g>
</svg>