<?xml version="1.0" encoding="UTF-8"?>
<svg id="Layer_2" data-name="Layer 2" xmlns="http://www.w3.org/2000/svg" xmlns:xlink="http://www.w3.org/1999/xlink" viewBox="0 0 68.15 53.86">
  <defs>
    <style>
      .cls-1 {
        fill: none;
      }

      .cls-2 {
        clip-path: url(#clippath);
      }

      .cls-3 {
        fill: #fff2cf;
      }

      .cls-4 {
        fill: #fc611f;
      }

      .cls-5 {
        fill: #fdc00f;
      }

      .cls-6 {
        fill: #d1dce4;
      }

      .cls-7 {
        fill: #d0f0f4;
      }

      .cls-8 {
        fill: #118995;
      }

      .cls-9 {
        fill: #16b6c6;
      }

      .cls-10 {
        fill: #184f78;
      }

      .cls-11 {
        fill: #467293;
      }

      .cls-12 {
        fill: #fff;
      }

      .cls-12, .cls-13 {
        opacity: .3;
      }

      .cls-12, .cls-13, .cls-14 {
        isolation: isolate;
      }

      .cls-15 {
        clip-path: url(#clippath-1);
      }

      .cls-14 {
        opacity: .2;
      }
    </style>
    <clipPath id="clippath">
      <rect class="cls-1" width="68.15" height="53.86"/>
    </clipPath>
    <clipPath id="clippath-1">
      <rect class="cls-1" y="19.24" width="29.71" height="35.04"/>
    </clipPath>
  </defs>
  <g id="Layer_1-2" data-name="Layer 1">
    <g class="cls-2">
      <g>
        <path class="cls-7" d="M68.15,0H0V53.86H68.15V0Z"/>
        <path class="cls-8" d="M64.61,3.52V50.34H3.54V3.52h61.07Zm3.54-3.52H0V53.86H68.15V0Z"/>
        <path class="cls-9" d="M59.74,10.35H8.41v3.52H59.74v-3.52Z"/>
        <path class="cls-9" d="M55.34,19.82H12.81v1.17H55.34v-1.17Z"/>
        <path class="cls-9" d="M55.34,26.93H12.81v1.17H55.34v-1.17Z"/>
        <path class="cls-9" d="M55.34,34.03H12.81v1.17H55.34v-1.17Z"/>
        <path class="cls-9" d="M46.1,41.15H12.81v1.17H46.1v-1.17Z"/>
        <path class="cls-13" d="M50.62,52.32l3.6-2.07,3.6,2.07v-8.83h-7.2v8.83Z"/>
        <path class="cls-4" d="M50.62,51.15l3.6-2.07,3.6,2.07v-8.83h-7.2v8.83Z"/>
        <path class="cls-13" d="M54.22,38.26l.68,.93,.93-.67,.37,1.09,1.11-.35v1.15h1.16s-.35,1.1-.35,1.1l1.1,.36-.67,.94,.93,.68-.93,.68,.67,.93-1.1,.36,.35,1.09h-1.16v1.16l-1.11-.35-.37,1.09-.93-.67-.68,.93-.68-.93-.94,.67-.37-1.09-1.1,.35v-1.15s-1.16-.01-1.16-.01l.34-1.09-1.1-.36,.67-.93-.93-.68,.93-.68-.67-.94,1.1-.36-.34-1.09h1.14s.01-1.16,.01-1.16l1.1,.35,.37-1.09,.94,.67,.68-.93Z"/>
        <path class="cls-4" d="M54.22,37.08l.68,.93,.93-.67,.37,1.09,1.11-.35v1.15h1.16s-.35,1.1-.35,1.1l1.1,.36-.67,.94,.93,.68-.93,.68,.67,.93-1.1,.36,.35,1.09h-1.16v1.16l-1.11-.35-.37,1.09-.93-.67-.68,.93-.68-.93-.94,.67-.37-1.09-1.1,.35v-1.15s-1.16-.01-1.16-.01l.34-1.09-1.1-.36,.67-.93-.93-.68,.93-.68-.67-.94,1.1-.36-.34-1.09h1.14s.01-1.16,.01-1.16l1.1,.35,.37-1.09,.94,.67,.68-.93Z"/>
        <path class="cls-12" d="M68.15,0H0V53.86S12.81,8.7,68.15,0Z"/>
        <g class="cls-15">
          <g>
            <path class="cls-5" d="M26.85,48.38H0v5.9H26.85v-5.9Z"/>
            <path class="cls-3" d="M8.33,48.38H2.76v5.9h5.57v-5.9Z"/>
            <path class="cls-3" d="M10.28,48.38h-1.14v5.9h1.14v-5.9Z"/>
            <path class="cls-9" d="M29.71,42.47H2.86v5.9H29.71v-5.9Z"/>
            <path class="cls-8" d="M11.19,42.47H5.62v5.9h5.57v-5.9Z"/>
            <path class="cls-8" d="M13.14,42.47h-1.14v5.9h1.14v-5.9Z"/>
            <path class="cls-10" d="M28.68,36.57H1.83v5.9H28.68v-5.9Z"/>
            <path class="cls-6" d="M10.17,36.57H4.6v5.9h5.57v-5.9Z"/>
            <path class="cls-6" d="M12.11,36.57h-1.14v5.9h1.14v-5.9Z"/>
            <path class="cls-10" d="M19.58,22.9c-1.55,1.37-4.15,1.3-4.15,1.3,0,0-.08-2.29,1.47-3.66,1.55-1.37,4.15-1.3,4.15-1.3,0,0,.08,2.29-1.47,3.66Z"/>
            <path class="cls-11" d="M20.38,19.83s-.21,.28-.58,.67c-.36,.38-.87,.88-1.41,1.35-.53,.47-1.09,.92-1.53,1.24-.43,.32-.75,.51-.75,.51,0,0,.21-.28,.58-.67,.36-.38,.87-.88,1.41-1.35,.53-.47,1.09-.92,1.53-1.24,.43-.32,.75-.51,.75-.51h0Z"/>
            <path class="cls-4" d="M15.43,24.11c-6.03-1.56-8.79,2.42-7.67,6.75,.87,3.41,3.92,6.49,7.67,5.54,3.75,.95,6.8-2.13,7.67-5.54,1.11-4.33-1.64-8.31-7.67-6.75Z"/>
            <path class="cls-14" d="M0,48.38H26.85v1.3L0,48.38Z"/>
            <path class="cls-14" d="M2.86,42.47H29.71v1.3l-26.85-1.3Z"/>
            <path class="cls-12" d="M12.06,36.17c-.03-.34-.05-.69-.05-1.04,0-5.08,3.15-9.41,7.61-11.17-1.14-.29-2.54-.28-4.18,.14-6.03-1.56-8.79,2.42-7.67,6.75,.59,2.3,2.18,4.45,4.3,5.31h0Z"/>
          </g>
        </g>
      </g>
    </g>
  </g>
</svg>