<?xml version="1.0" encoding="UTF-8"?>
<svg id="Layer_2" data-name="Layer 2" xmlns="http://www.w3.org/2000/svg" xmlns:xlink="http://www.w3.org/1999/xlink" viewBox="0 0 45.82 51.96">
  <defs>
    <style>
      .cls-1 {
        fill: none;
      }

      .cls-2 {
        clip-path: url(#clippath);
      }

      .cls-3 {
        fill: #fff2cf;
      }

      .cls-4 {
        fill: #fc611f;
      }

      .cls-5 {
        fill: #fdc00f;
      }

      .cls-6 {
        fill: #a3b9c9;
      }

      .cls-7 {
        fill: #16b6c6;
      }

      .cls-8 {
        fill: #184f78;
      }

      .cls-9 {
        fill: #a2e2e8;
      }

      .cls-10 {
        fill: #fff;
        isolation: isolate;
        opacity: .3;
      }

      .cls-11 {
        opacity: .2;
      }
    </style>
    <clipPath id="clippath">
      <rect class="cls-1" width="45.82" height="51.96"/>
    </clipPath>
  </defs>
  <g id="Layer_1-2" data-name="Layer 1">
    <g class="cls-2">
      <g>
        <path class="cls-5" d="M10.01,29.01c11.07,8.84,1.78,16.12,9.62,21.23,7.04,4.59,20.35,.49,25.31-18.08,3.66-13.68-4.41-27.13-17.65-31.29C9.73-4.64-4.47,17.44,10.01,29.01Zm11,14.76c.46-1.71,2.74-2.58,5.12-1.94,2.36,.64,3.92,2.54,3.46,4.25-.45,1.71-2.74,2.58-5.12,1.94-2.38-.64-3.92-2.54-3.45-4.25h-.01Z"/>
        <path class="cls-9" d="M8.21,12.57c-.6,2.27,.73,4.6,3,5.2,2.26,.61,4.59-.74,5.19-3.01,.6-2.26-.74-4.6-3-5.2s-4.59,.73-5.19,3.01Z"/>
        <path class="cls-8" d="M16.96,6.61c-.6,2.26,.73,4.6,2.99,5.2,2.26,.61,4.59-.73,5.19-3.01,.6-2.26-.74-4.6-2.99-5.2-2.27-.61-4.59,.73-5.19,3.01Z"/>
        <path class="cls-4" d="M27.37,9.96c-.6,2.27,.73,4.6,3,5.2,2.26,.61,4.59-.73,5.19-3.01,.6-2.26-.74-4.6-3-5.2-2.25-.61-4.59,.74-5.19,3.01Z"/>
        <path class="cls-7" d="M33.6,18.99c-.6,2.27,.73,4.6,3,5.2,2.25,.61,4.59-.73,5.19-3.01,.6-2.26-.74-4.6-3-5.2s-4.59,.73-5.19,3.01Z"/>
        <path class="cls-3" d="M33.48,29.98c-.6,2.26,.74,4.6,3,5.2,2.27,.61,4.59-.73,5.19-3.01,.6-2.26-.74-4.6-3-5.2-2.26-.61-4.59,.73-5.19,3.01Z"/>
        <g class="cls-11">
          <path d="M14.7,10.18c.69,.99,.96,2.26,.64,3.52-.6,2.26-2.94,3.61-5.19,3.01-.49-.13-.91-.35-1.3-.63,.55,.8,1.36,1.41,2.36,1.69,2.26,.61,4.59-.74,5.19-3.01,.48-1.78-.26-3.59-1.7-4.58Z"/>
          <path d="M40.73,20.13c-.6,2.26-2.93,3.61-5.19,3.01-.49-.13-.91-.35-1.3-.62,.55,.8,1.36,1.41,2.36,1.68,2.25,.61,4.59-.73,5.19-3.01,.48-1.78-.26-3.59-1.7-4.58,.69,.99,.97,2.26,.63,3.52Z"/>
          <path d="M35.56,12.16c.48-1.78-.26-3.59-1.7-4.58,.69,.99,.97,2.26,.64,3.52-.6,2.27-2.94,3.61-5.19,3.01-.49-.13-.91-.35-1.3-.63,.55,.8,1.36,1.41,2.36,1.69,2.26,.61,4.59-.73,5.19-3.01Z"/>
          <path d="M23.45,4.23c.69,.99,.97,2.26,.64,3.52-.6,2.26-2.93,3.61-5.19,3.01-.49-.13-.91-.35-1.3-.63,.55,.8,1.36,1.41,2.36,1.69,2.26,.61,4.59-.73,5.19-3.01,.48-1.78-.26-3.59-1.7-4.58Z"/>
          <path d="M39.97,27.61c.69,.99,.97,2.26,.64,3.52-.6,2.27-2.92,3.61-5.19,3.01-.49-.13-.91-.35-1.3-.63,.55,.8,1.36,1.41,2.36,1.69,2.27,.61,4.59-.73,5.19-3.01,.48-1.78-.26-3.59-1.7-4.58Z"/>
        </g>
        <path class="cls-8" d="M8.34,32.01c-3.87,6.72-5.67,12.95-4.02,13.9,1.65,.96,6.14-3.72,10-10.44,3.87-6.72,5.67-12.95,4.02-13.9-1.65-.96-6.13,3.72-10,10.43h0Z"/>
        <path class="cls-4" d="M2.26,45.15c.42-.28,.87-.56,1.26-.52,4.9,.64,2.03,8.4-2.9,7.2-.43-.11-.62-.28-.62-.27,0,0,.21-.16,.43-.46,.22-.3,.31-.72,.26-1.16-.02-.44-.12-.95-.12-1.55,0-.57,.07-1.35,.61-2.17,.33-.44,.7-.82,1.08-1.09h0Z"/>
        <path class="cls-6" d="M4,42.14l-1.68,2.92,3.74,2.16,1.68-2.92-3.73-2.16Z"/>
        <path class="cls-10" d="M.57,51.81c.12-.11,.25-.22,.36-.32,.06-.03,.11-.06,.16-.11l-.06-.04,2.62-4.55c.94-4.11,3.33-9.87,6.8-15.88,1.94-3.37,3.97-6.39,5.92-8.92-2.14,1.36-5.24,5.14-8.04,9.99-2.22,3.85-3.74,7.52-4.35,10.14l-1.67,2.9,.04,.02s-.08,.04-.11,.06c-.38,.29-.75,.66-1.08,1.09-.55,.82-.61,1.59-.61,2.17,0,.61,.09,1.12,.11,1.55,.04,.44-.04,.86-.26,1.16-.2,.3-.43,.45-.42,.46,0-.01,.18,.14,.57,.24l.02,.02Z"/>
      </g>
    </g>
  </g>
</svg>