<?xml version="1.0" encoding="UTF-8"?>
<svg id="Layer_2" data-name="Layer 2" xmlns="http://www.w3.org/2000/svg" xmlns:xlink="http://www.w3.org/1999/xlink" viewBox="0 0 46.7 46.79">
  <defs>
    <style>
      .cls-1 {
        fill: none;
      }

      .cls-2 {
        clip-path: url(#clippath);
      }

      .cls-3 {
        fill: #10b981;
      }

      .cls-4 {
        fill: #0a5439;
      }
    </style>
    <clipPath id="clippath">
      <rect class="cls-1" width="46.7" height="46.79"/>
    </clipPath>
  </defs>
  <g id="Layer_1-2" data-name="Layer 1">
    <g class="cls-2">
      <g>
        <path class="cls-4" d="M23.47,0h-.22c-1.08,0-1.96,.88-1.96,1.96V36.64c0,1.09,.88,1.97,1.96,1.97h.22c1.08,0,1.96-.88,1.96-1.97V1.96c0-1.08-.88-1.96-1.96-1.96Z"/>
        <path class="cls-4" d="M24.71,36.85h0c-.81-.81-2.11-.81-2.92-.01l-6.42,6.43c-.81,.81-.81,2.11,0,2.92h0c.81,.82,2.11,.82,2.92,.01l6.42-6.43c.81-.8,.81-2.11,0-2.92Z"/>
        <path class="cls-4" d="M31.34,46.2h0c.81-.81,.81-2.12,0-2.93l-6.43-6.42c-.81-.81-2.11-.81-2.92,0h-.01c-.81,.82-.81,2.12,0,2.93l6.43,6.42c.81,.81,2.11,.81,2.92,0Z"/>
        <path class="cls-3" d="M35.56,5.75H11.14C4.99,5.75,0,10.74,0,16.89v10.58c0,6.15,4.99,11.14,11.14,11.14h24.42c6.15,0,11.14-4.99,11.14-11.14v-10.58c0-6.15-4.99-11.14-11.14-11.14Z"/>
        <path class="cls-4" d="M34.76,20.17c1,0,1.8-.81,1.8-1.8s-.81-1.81-1.8-1.81H11.94c-1,0-1.8,.81-1.8,1.81s.81,1.8,1.8,1.8h22.83Z"/>
        <path class="cls-4" d="M24.21,27.79c1,0,1.8-.8,1.8-1.8s-.81-1.8-1.8-1.8H11.94c-1,0-1.8,.8-1.8,1.8s.81,1.8,1.8,1.8h12.28Z"/>
      </g>
    </g>
  </g>
</svg>