<?xml version="1.0" encoding="UTF-8"?>
<svg id="Layer_2" data-name="Layer 2" xmlns="http://www.w3.org/2000/svg" xmlns:xlink="http://www.w3.org/1999/xlink" viewBox="0 0 82 100">
  <defs>
    <style>
      .cls-1 {
        fill: none;
      }

      .cls-2 {
        clip-path: url(#clippath);
      }

      .cls-3 {
        fill: #fdc00f;
      }

      .cls-4 {
        fill: #16b6c6;
      }

      .cls-5 {
        fill: #fff;
        opacity: .3;
      }

      .cls-5, .cls-6 {
        isolation: isolate;
      }

      .cls-6 {
        opacity: .2;
      }
    </style>
    <clipPath id="clippath">
      <rect class="cls-1" width="82" height="100"/>
    </clipPath>
  </defs>
  <g id="Layer_1-2" data-name="Layer 1">
    <g class="cls-2">
      <g>
        <path class="cls-4" d="M79.72,14.56c4.25-7.29,2.01-10.86-2.02-13.16-4.01-2.29-8.26-2.44-12.53,4.85-2.8,4.81-3.46,13.19-5.64,17.74-1.43,3.03-5.18,5.4-6.71,8.03-3.08,5.29-1.45,7.87,1.47,9.53,2.9,1.66,5.98,1.77,9.08-3.5,1.54-2.62,1.73-7.02,3.66-9.78,2.89-4.12,9.89-8.9,12.71-13.71h-.02Z"/>
        <path class="cls-5" d="M55.24,33.39c1.54-2.62,5.27-5,6.71-8.03,2.18-4.55,2.84-12.92,5.64-17.74,3.82-6.56,7.64-7.09,11.29-5.48-.36-.26-.76-.51-1.17-.75-4.01-2.3-8.26-2.45-12.53,4.84-2.8,4.81-3.46,13.2-5.64,17.75-1.43,3.03-5.18,5.39-6.71,8.02-3.08,5.29-1.45,7.88,1.47,9.54,.41,.24,.83,.44,1.26,.6-2.13-1.68-2.96-4.23-.31-8.77v.02Z"/>
        <path class="cls-4" d="M32.5,82.87c3.18-5.46,10.23-7.31,15.76-4.16,5.53,3.17,7.43,10.15,4.25,15.59-3.18,5.46-10.23,7.33-15.76,4.16s-7.43-10.15-4.25-15.61v.02Z"/>
        <path class="cls-5" d="M33.5,82.71c2.32-3.97,7.43-5.32,11.46-3.01,4.01,2.3,5.39,7.38,3.09,11.33-2.32,3.97-7.45,5.32-11.46,3.03-4.03-2.29-5.41-7.37-3.09-11.35Z"/>
        <path class="cls-3" d="M60.27,94.16c-1.73-8.96,3.58-21.58,3.58-21.58l4.98-8.54c6.81-11.69,2.75-26.64-9.11-33.42-11.84-6.78-26.96-2.79-33.77,8.9l-4.98,8.54s-8.37,10.87-17.09,13.86c-4.72,1.63-5.26,1.57-.9,4.06l27.1,15.49,27.1,15.48c4.34,2.49,4.04,2.07,3.09-2.8h0Z"/>
        <path class="cls-5" d="M27,52.66l5.98-10.25c4.58-7.86,12.31-12.82,20.71-14.22-10.54-2.79-22.04,1.57-27.74,11.34l-4.98,8.54s-8.37,10.87-17.09,13.87c-4.72,1.62-5.26,1.57-.9,4.05l4.86,2.78c9.97-4.2,19.17-16.13,19.17-16.13v.02Z"/>
        <path class="cls-6" d="M56.82,69.69l5.98-10.25c4.58-7.86,5.05-16.96,2.09-24.87,7.71,7.65,9.65,19.7,3.94,29.47l-4.98,8.54s-5.32,12.62-3.58,21.6c.93,4.86,1.24,5.29-3.09,2.81l-4.86-2.77c-1.31-10.65,4.51-24.51,4.51-24.51l-.02-.02Z"/>
      </g>
    </g>
  </g>
</svg>