<?xml version="1.0" encoding="UTF-8"?>
<svg id="Layer_2" data-name="Layer 2" xmlns="http://www.w3.org/2000/svg" xmlns:xlink="http://www.w3.org/1999/xlink" viewBox="0 0 43.57 66.89">
  <defs>
    <style>
      .cls-1 {
        fill: none;
      }

      .cls-2 {
        clip-path: url(#clippath);
      }

      .cls-3 {
        fill: #10b981;
      }

      .cls-4 {
        fill: #0a5439;
      }
    </style>
    <clipPath id="clippath">
      <rect class="cls-1" width="43.57" height="66.89"/>
    </clipPath>
  </defs>
  <g id="Layer_1-2" data-name="Layer 1">
    <g class="cls-2">
      <g>
        <path class="cls-3" d="M9.89,66.89V31.18h23.79v35.71l-11.27-12.28-12.52,12.28Z"/>
        <path class="cls-4" d="M21.78,43.56c12.03,0,21.78-9.75,21.78-21.78S33.81,0,21.78,0,0,9.75,0,21.78s9.75,21.78,21.78,21.78Z"/>
        <path class="cls-3" d="M21.78,39.48c9.78,0,17.7-7.92,17.7-17.7S31.56,4.08,21.78,4.08,4.08,12,4.08,21.78s7.92,17.7,17.7,17.7Z"/>
        <path class="cls-4" d="M33.68,17.6h0c0-1.16-.93-2.09-2.08-2.09H12.91c-1.15,0-2.08,.93-2.08,2.08h0c0,1.16,.93,2.09,2.08,2.09H31.6c1.15,0,2.08-.93,2.08-2.08Z"/>
        <path class="cls-4" d="M31.08,26.43h0c0-1.16-.93-2.09-2.08-2.09H15.5c-1.15,0-2.08,.93-2.08,2.08h0c0,1.16,.93,2.09,2.08,2.09h13.5c1.15,0,2.08-.93,2.08-2.08Z"/>
      </g>
    </g>
  </g>
</svg>