<?xml version="1.0" encoding="UTF-8"?>
<svg id="Layer_2" data-name="Layer 2" xmlns="http://www.w3.org/2000/svg" viewBox="0 0 296.16 127.9">
  <defs>
    <style>
      .cls-1 {
        opacity: .1;
      }

      .cls-2 {
        fill: #fff;
      }

      .cls-3 {
        fill: #18496b;
      }
    </style>
  </defs>
  <g id="Layer_1-2" data-name="Layer 1">
    <g>
      <path class="cls-2" d="M30.95,65.97c4.77,0,9.24,1.17,13.28,3.1,6.8-10.49,18.55-17.47,31.98-17.47,2.82,0,5.54,.35,8.18,.93,6.8-10.45,18.54-17.4,31.94-17.4,8.26,0,15.86,2.69,22.1,7.16C140.77,18.59,160.52,0,184.84,0s43.67,18.21,46.34,41.57c5.25-2.59,11.08-4.18,17.33-4.18,21.74,0,39.35,17.62,39.35,39.36,0,1.11-.24,2.15-.33,3.24,5.29,5.02,8.63,12.07,8.63,19.94,0,15.21-12.33,27.55-27.55,27.55-.1,0-.18-.03-.28-.03-1.41,.27-2.85,.45-4.34,.45H36.66c-.97,0-1.9-.17-2.84-.29-.96,.09-1.88,.29-2.86,.29-17.1,0-30.96-13.86-30.96-30.96s13.86-30.96,30.96-30.96h-.01Z"/>
      <g class="cls-1">
        <path class="cls-3" d="M55.25,58.01c.56-.37,1.11-.75,1.69-1.09-.32,.45-.68,.87-.99,1.34-.22-.11-.48-.15-.7-.25Z"/>
        <path class="cls-3" d="M95.25,41.62c.59-.4,1.19-.79,1.8-1.16-.3,.43-.64,.82-.93,1.26-.28-.06-.59-.04-.87-.1Z"/>
        <path class="cls-3" d="M16.51,69.71c-3,4.77-4.8,10.36-4.8,16.41,0,17.1,13.86,30.96,30.96,30.96,.98,0,1.9-.2,2.86-.29,.94,.12,1.87,.29,2.84,.29h227.36c1.49,0,2.93-.18,4.34-.45,.1,0,.18,.03,.28,.03,4.3,0,8.31-1.07,11.94-2.82-4.79,8.13-13.54,13.64-23.66,13.64-.1,0-.18-.03-.28-.03-1.41,.27-2.85,.45-4.34,.45H36.66c-.97,0-1.9-.17-2.84-.29-.96,.09-1.88,.29-2.86,.29-17.1,0-30.96-13.86-30.96-30.96,0-11.85,6.74-22.03,16.52-27.23h0Z"/>
      </g>
      <g class="cls-1">
        <path class="cls-3" d="M79.77,64.06c.85-6.6,4.2-12.22,8.91-16.2-2.37,3.32-4.07,7.18-4.63,11.5-1.8,13.99,8.09,26.79,22.08,28.58,7.39,.95,14.39-1.43,19.67-5.88-5.29,7.41-14.29,11.81-23.96,10.58-13.99-1.8-23.88-14.59-22.08-28.58h.01Z"/>
      </g>
      <g class="cls-1">
        <path class="cls-3" d="M231.8,40.02c6.19-2.44,12.73-2.23,18.49-.02-4.05-.47-8.25-.1-12.31,1.5-13.12,5.18-19.56,20.02-14.37,33.14,2.74,6.93,8.2,11.92,14.65,14.39-9.04-1.06-17.25-6.81-20.83-15.87-5.18-13.12,1.25-27.95,14.37-33.14Z"/>
      </g>
    </g>
  </g>
</svg>