<?xml version="1.0" encoding="UTF-8"?>
<svg id="Layer_2" data-name="Layer 2" xmlns="http://www.w3.org/2000/svg" xmlns:xlink="http://www.w3.org/1999/xlink" viewBox="0 0 122 90">
  <defs>
    <style>
      .cls-1 {
        fill: none;
      }

      .cls-2 {
        clip-path: url(#clippath);
      }

      .cls-3 {
        fill: #ecf9fb;
      }

      .cls-4 {
        fill: #fdc00f;
      }

      .cls-5 {
        fill: #118995;
      }

      .cls-6 {
        fill: #a2e2e8;
      }

      .cls-7 {
        isolation: isolate;
        opacity: .2;
      }
    </style>
    <clipPath id="clippath">
      <rect class="cls-1" width="122" height="90"/>
    </clipPath>
  </defs>
  <g id="Layer_1-2" data-name="Layer 1">
    <g class="cls-2">
      <g>
        <path class="cls-5" d="M67.66,5.06H0V90H122V5.06h-54.34Z"/>
        <path class="cls-3" d="M115.34,82.1c-17.61-6.73-36.73-6.73-54.34,0V5.06c17.61-6.76,36.73-6.76,54.34,0V82.1Z"/>
        <path class="cls-4" d="M107.42,11.24c-.09,0-.18,0-.28-.04-12.4-3.29-25.53-3.29-37.95,0-.59,.17-1.2-.2-1.35-.79-.17-.59,.2-1.2,.79-1.35,12.79-3.38,26.3-3.38,39.09,0,.59,.15,.94,.76,.79,1.35-.13,.49-.57,.83-1.07,.83h-.04Z"/>
        <path class="cls-4" d="M107.42,20.06c-.09,0-.18,0-.28-.04-12.42-3.29-25.53-3.29-37.95,0-.59,.16-1.2-.2-1.35-.8-.15-.59,.2-1.19,.79-1.34,12.79-3.38,26.3-3.38,39.07,0,.59,.15,.94,.75,.79,1.34-.13,.5-.57,.84-1.07,.84h-.02Z"/>
        <path class="cls-4" d="M107.42,28.89c-.09,0-.18,0-.28-.03-12.4-3.29-25.53-3.29-37.95,0-.59,.16-1.2-.21-1.35-.8-.17-.59,.2-1.2,.79-1.34,12.79-3.38,26.3-3.38,39.09,0,.59,.16,.94,.75,.79,1.34-.13,.5-.57,.83-1.07,.83h-.04Z"/>
        <path class="cls-4" d="M107.42,37.71c-.09,0-.18,0-.28-.03-12.42-3.29-25.53-3.29-37.95,0-.59,.16-1.2-.21-1.35-.8-.15-.59,.2-1.2,.79-1.35,12.79-3.37,26.3-3.37,39.07,0,.59,.17,.94,.76,.79,1.35-.13,.5-.57,.83-1.07,.83h-.02Z"/>
        <path class="cls-4" d="M68.9,46.53c-.5,0-.94-.33-1.07-.83-.17-.59,.2-1.2,.79-1.35,12.79-3.37,26.3-3.37,39.09,0,.59,.17,.94,.76,.79,1.35-.15,.59-.76,.94-1.35,.79-12.4-3.28-25.53-3.28-37.95,0-.09,.02-.18,.04-.28,.04h-.04Z"/>
        <path class="cls-4" d="M68.9,55.37c-.5,0-.94-.33-1.07-.83-.17-.59,.2-1.2,.79-1.35,12.79-3.37,26.3-3.37,39.07,0,.59,.17,.94,.76,.79,1.35-.15,.59-.76,.94-1.35,.79-12.42-3.28-25.53-3.28-37.95,0-.09,.02-.18,.04-.28,.04h-.02Z"/>
        <path class="cls-4" d="M107.42,64.19c-.09,0-.18,0-.28-.04-12.42-3.28-25.53-3.28-37.95,0-.59,.17-1.2-.2-1.35-.79-.17-.59,.2-1.2,.79-1.35,12.79-3.38,26.3-3.38,39.07,0,.59,.15,.94,.76,.79,1.35-.13,.5-.57,.83-1.07,.83h-.02Z"/>
        <path class="cls-4" d="M68.9,73.01c-.5,0-.94-.33-1.07-.83-.17-.59,.2-1.2,.79-1.35,12.77-3.38,26.3-3.38,39.07,0,.59,.17,.94,.76,.79,1.35-.15,.59-.76,.94-1.35,.79-12.42-3.28-25.54-3.28-37.95,0-.09,.02-.18,.04-.28,.04h-.02Z"/>
        <path class="cls-3" d="M61,82.1c-17.61-6.73-36.73-6.73-54.34,0V5.06C24.27-1.68,43.39-1.68,61,5.06V82.1Z"/>
        <path class="cls-4" d="M53.1,11.24c-.09,0-.18,0-.28-.04-12.4-3.28-25.53-3.28-37.95,0-.59,.17-1.2-.2-1.35-.79-.15-.59,.2-1.2,.79-1.35,12.79-3.38,26.3-3.38,39.07,0,.59,.15,.94,.76,.79,1.35-.13,.49-.57,.83-1.07,.83h-.02Z"/>
        <path class="cls-4" d="M14.58,20.06c-.5,0-.94-.34-1.07-.83-.15-.6,.2-1.2,.79-1.35,12.79-3.38,26.3-3.38,39.07,0,.59,.15,.94,.75,.79,1.35-.15,.59-.76,.94-1.35,.79-12.42-3.29-25.54-3.29-37.95,0-.09,.02-.18,.04-.28,.04h-.02Z"/>
        <path class="cls-4" d="M53.1,28.89c-.09,0-.18,0-.28-.03-12.4-3.29-25.53-3.29-37.95,0-.59,.16-1.2-.21-1.35-.8-.15-.59,.2-1.2,.79-1.34,12.79-3.38,26.3-3.38,39.07,0,.59,.16,.94,.75,.79,1.34-.13,.5-.57,.83-1.07,.83h-.02Z"/>
        <path class="cls-4" d="M14.58,37.71c-.5,0-.94-.33-1.07-.83-.15-.59,.2-1.2,.79-1.34,12.79-3.38,26.3-3.38,39.07,0,.59,.16,.94,.75,.79,1.34-.15,.59-.76,.94-1.35,.8-12.42-3.29-25.54-3.29-37.95,0-.09,.01-.18,.03-.28,.03h-.02Z"/>
        <path class="cls-4" d="M53.1,46.53c-.09,0-.18,0-.28-.04-12.42-3.28-25.54-3.28-37.95,0-.59,.17-1.2-.2-1.35-.79-.15-.59,.2-1.2,.79-1.35,12.79-3.37,26.3-3.37,39.07,0,.59,.17,.94,.76,.79,1.35-.13,.5-.57,.83-1.07,.83h-.02Z"/>
        <path class="cls-4" d="M14.58,55.37c-.5,0-.94-.33-1.07-.83-.15-.59,.2-1.2,.79-1.35,12.77-3.37,26.3-3.37,39.07,0,.59,.17,.94,.76,.79,1.35-.15,.59-.76,.94-1.35,.79-12.42-3.28-25.54-3.28-37.95,0-.09,.02-.18,.04-.28,.04h-.02Z"/>
        <path class="cls-4" d="M14.58,64.19c-.5,0-.94-.33-1.07-.83-.15-.59,.2-1.2,.79-1.35,12.79-3.38,26.3-3.38,39.07,0,.59,.15,.94,.76,.79,1.35-.15,.59-.76,.94-1.35,.79-12.42-3.28-25.53-3.28-37.95,0-.09,.02-.18,.04-.28,.04h-.02Z"/>
        <path class="cls-4" d="M14.58,73.01c-.5,0-.94-.33-1.07-.83-.15-.59,.2-1.2,.79-1.35,12.77-3.38,26.28-3.38,39.07,0,.59,.17,.94,.76,.79,1.35-.15,.59-.76,.94-1.35,.79-12.42-3.28-25.54-3.28-37.95,0-.09,.02-.18,.04-.28,.04h-.02Z"/>
        <path class="cls-6" d="M6.66,82.1H61c-17.61-6.73-36.73-6.73-54.34,0Z"/>
        <path class="cls-6" d="M61,82.1h54.34c-17.61-6.73-36.73-6.73-54.34,0Z"/>
        <path class="cls-7" d="M115.34,5.06V82.08H6.66l3.69,3.69H119.01V8.75l-3.69-3.69h.02Z"/>
        <path class="cls-7" d="M61,82.1s-.07-1.2-.18-3.3c-.07-2.1-.26-5.11-.33-8.73-.07-3.61-.24-7.82-.29-12.34-.07-4.52-.09-9.34-.11-14.15,.02-4.82,.04-9.63,.11-14.15,.05-4.52,.22-8.73,.29-12.35,.07-3.61,.26-6.62,.33-8.72,.11-2.11,.18-3.3,.18-3.3,0,0,.07,1.19,.18,3.3,.07,2.1,.26,5.11,.33,8.72,.07,3.62,.24,7.83,.29,12.35,.07,4.52,.09,9.33,.11,14.15-.02,4.81-.04,9.63-.11,14.15-.05,4.52-.22,8.73-.29,12.34-.07,3.62-.26,6.63-.33,8.73-.11,2.1-.18,3.3-.18,3.3Z"/>
      </g>
    </g>
  </g>
</svg>