<?xml version="1.0" encoding="UTF-8"?>
<svg id="Layer_2" data-name="Layer 2" xmlns="http://www.w3.org/2000/svg" viewBox="0 0 110 101">
  <defs>
    <style>
      .cls-1 {
        fill: #fff;
      }

      .cls-2 {
        fill: #fcd9c7;
      }

      .cls-3 {
        fill: #e66623;
      }

      .cls-4 {
        fill: #be451b;
      }

      .cls-5 {
        fill: #e35122;
      }

      .cls-6 {
        fill: #1e2414;
      }
    </style>
  </defs>
  <g id="Layer_1-2" data-name="Layer 1">
    <g>
      <path class="cls-3" d="M63.62,31.82C63.62,14.25,49.38,0,31.81,0S0,14.25,0,31.82v54.81c0,7.94,6.43,14.37,14.36,14.37H95.63c7.94,0,14.37-6.43,14.37-14.37v-28.33c0-8.62-6.98-15.6-15.6-15.6h-19.91c-6.01,0-10.88-4.87-10.88-10.88Z"/>
      <path class="cls-4" d="M15.6,61.17v27.97c0,3.63,2.94,6.57,6.57,6.57,3.05,0,5.6-2.08,6.34-4.89,.07,0,.15,.01,.22,.01s.15-.01,.22-.01c.74,2.81,3.3,4.89,6.34,4.89,3.63,0,6.57-2.94,6.57-6.57,0,3.63,2.94,6.57,6.57,6.57,3.05,0,5.6-2.08,6.34-4.89,.08,0,.15,.01,.22,.01s.15-.01,.22-.01c.74,2.81,3.3,4.89,6.34,4.89s5.6-2.08,6.34-4.89c.08,0,.15,.01,.22,.01s.15-.01,.22-.01c.74,2.81,3.3,4.89,6.34,4.89s5.6-2.08,6.34-4.89c.07,0,.15,.01,.22,.01s.15-.01,.22-.01c.74,2.81,3.3,4.89,6.34,4.89,3.63,0,6.57-2.94,6.57-6.57v-27.97H15.6Z"/>
      <path class="cls-2" d="M81.27,67.33H15.6v21.81c0,3.63,2.94,6.57,6.57,6.57,3.05,0,5.6-2.08,6.34-4.89,.07,0,.15,.01,.22,.01s.15-.01,.22-.01c.74,2.81,3.3,4.89,6.34,4.89,3.63,0,6.57-2.94,6.57-6.57,0,3.63,2.94,6.57,6.57,6.57,3.05,0,5.6-2.08,6.34-4.89,.07,0,.15,.01,.22,.01s.15-.01,.22-.01c.74,2.81,3.3,4.89,6.34,4.89s5.6-2.08,6.34-4.89c.07,0,.15,.01,.22,.01s.15-.01,.22-.01c.74,2.81,3.3,4.89,6.34,4.89s5.6-2.08,6.34-4.89c.07,0,.15,.01,.22,.01s.15-.01,.22-.01c.74,2.81,3.3,4.89,6.34,4.89,3.63,0,6.57-2.94,6.57-6.57v-21.81h-13.13Z"/>
      <path class="cls-1" d="M84.64,77.77v9.69c0,1.78-1.39,3.24-3.14,3.35,.74,2.82,3.3,4.9,6.34,4.9,3.63,0,6.57-2.94,6.57-6.57v-21.81h-13.13v7.07c1.86,0,3.37,1.51,3.37,3.37"/>
      <path class="cls-6" d="M84.64,87.46v-9.69c0-1.86-1.51-3.37-3.37-3.37s-3.37,1.51-3.37,3.37v9.69c0,1.78,1.39,3.24,3.14,3.36,.07,0,.15,.01,.22,.01s.15-.01,.22-.01c1.76-.12,3.14-1.58,3.14-3.36Z"/>
      <path class="cls-1" d="M58.37,77.77v9.69c0,1.78-1.39,3.24-3.14,3.35,.74,2.82,3.3,4.9,6.34,4.9s5.6-2.08,6.34-4.9c-1.75-.11-3.14-1.57-3.14-3.35v-9.69c0-1.86,1.51-3.37,3.37-3.37v-7.07h-13.13v7.07c1.86,0,3.37,1.51,3.37,3.37"/>
      <path class="cls-6" d="M58.37,87.46v-9.69c0-1.86-1.51-3.37-3.37-3.37s-3.37,1.51-3.37,3.37v9.69c0,1.78,1.39,3.24,3.14,3.36,.08,0,.15,.01,.22,.01s.15-.01,.22-.01c1.76-.12,3.14-1.58,3.14-3.36Z"/>
      <path class="cls-6" d="M71.5,87.46v-9.69c0-1.86-1.51-3.37-3.37-3.37s-3.37,1.51-3.37,3.37v9.69c0,1.78,1.39,3.24,3.14,3.36,.07,0,.15,.01,.22,.01s.15-.01,.22-.01c1.76-.12,3.14-1.58,3.14-3.36"/>
      <path class="cls-1" d="M32.1,77.77v9.69c0,1.78-1.39,3.24-3.14,3.35,.74,2.82,3.3,4.9,6.34,4.9,3.63,0,6.57-2.94,6.57-6.57v-21.81h-13.13v7.07c1.86,0,3.37,1.51,3.37,3.37"/>
      <path class="cls-6" d="M32.1,87.46v-9.69c0-1.86-1.51-3.37-3.37-3.37s-3.37,1.51-3.37,3.37v9.69c0,1.78,1.39,3.24,3.14,3.36,.07,0,.15,.01,.22,.01s.15-.01,.22-.01c1.76-.12,3.14-1.58,3.14-3.36"/>
      <path class="cls-5" d="M94.4,42.7h-19.91c-6.01,0-10.88-4.87-10.88-10.88,0-17.57-14.24-31.82-31.81-31.82S0,14.25,0,31.82v54.81c0,7.94,6.43,14.37,14.36,14.37h1.23v-3.69c-7.02-.01-12.7-5.71-12.7-12.73V33.95C2.89,18.37,15.51,5.75,31.08,5.75s28.19,12.62,28.19,28.2c0,5.32,4.31,11.7,9.64,11.7h21.93c7.64,0,13.83,6.19,13.83,13.82v25.11c0,6.19-4.42,11.34-10.27,12.49v3.93h1.23c7.94,0,14.37-6.43,14.37-14.37v-28.33c0-8.61-6.98-15.6-15.6-15.6"/>
    </g>
  </g>
</svg>