<?xml version="1.0" encoding="UTF-8"?>
<svg id="Layer_2" data-name="Layer 2" xmlns="http://www.w3.org/2000/svg" xmlns:xlink="http://www.w3.org/1999/xlink" viewBox="0 0 36.3 47.84">
  <defs>
    <style>
      .cls-1 {
        fill: none;
      }

      .cls-2 {
        clip-path: url(#clippath);
      }

      .cls-3 {
        fill: #f0f0f0;
      }

      .cls-4 {
        fill: #fdd946;
      }

      .cls-5 {
        fill: #fff;
      }

      .cls-6 {
        fill: #fcca03;
      }

      .cls-7 {
        fill: #e4e4e4;
      }

      .cls-8 {
        fill: #101949;
      }

      .cls-9 {
        fill: #297ff2;
      }

      .cls-10 {
        fill: #b7dff9;
        isolation: isolate;
        opacity: .05;
      }
    </style>
    <clipPath id="clippath">
      <rect class="cls-1" width="36.3" height="47.84"/>
    </clipPath>
  </defs>
  <g id="Layer_1-2" data-name="Layer 1">
    <g class="cls-2">
      <g>
        <path class="cls-3" d="M21.89,39.04h-3.17v6.66h3.17v-6.66Z"/>
        <path class="cls-6" d="M20.13,5.32h.11c.36,0,.66-.3,.66-.66V1.46c0-.37-.3-.66-.66-.66h-.11c-.36,0-.66,.29-.66,.66v3.2c0,.36,.3,.66,.66,.66Z"/>
        <path class="cls-6" d="M20.1,38.88h.11c.36,0,.66-.29,.66-.66v-3.2c0-.37-.3-.66-.66-.66h-.11c-.36,0-.66,.29-.66,.66v3.2c0,.37,.3,.66,.66,.66Z"/>
        <path class="cls-8" d="M4.09,20.07v.42c.07,2.73,.82,5.29,2.09,7.52,2.06,3.62,5.48,6.37,9.57,7.54,1.41,.4,2.9,.62,4.44,.62,3.44,0,6.63-1.08,9.25-2.92,4.06-2.85,6.74-7.53,6.85-12.84v-.34c0-5.06-2.34-9.58-5.99-12.53-2.03-1.64-4.46-2.8-7.13-3.3-.97-.18-1.97-.28-2.99-.28-.7,0-1.38,.04-2.05,.13-7.93,1.01-14.06,7.78-14.06,15.98h.02Z"/>
        <path class="cls-9" d="M21.49,20.24c.83,.74,2,1.04,3.11,.9,.41-.05,.81-.16,1.21-.25,.52-.12,1.03-.21,1.55-.12,.94,.16,1.68,.9,2.27,1.66,.59,.76,1.11,1.6,1.91,2.14,.8,.54,1.97,.67,2.65,0,.96-.96,.38-2.83,1.4-3.72,.21-.18,.46-.3,.71-.42v-.34c0-5.06-2.34-9.58-5.99-12.53-1.07,.41-1.89,1.39-1.99,2.58-.07,.79,.15,1.63-.17,2.35-.4,.9-1.39,1.2-2.41,1.38-.35,.06-.7,.11-1.03,.16-1.89,.29-3.94,1.35-4.3,3.23-.21,1.09,.24,2.27,1.08,3v-.02Z"/>
        <path class="cls-9" d="M4.09,20.07v.42c.77,.21,1.62,.11,2.23-.39,1.56-1.29,.92-4.38,2.77-5.19,2.06-.9,4.35,2.36,6.34,1.31,1.17-.61,1.23-2.26,.94-3.54-.29-1.28-.75-2.7-.12-3.85,.38-.7,1.11-1.16,1.58-1.8,.65-.88,.67-1.97,.29-2.94-7.93,1.01-14.06,7.78-14.06,15.98h.03Z"/>
        <path class="cls-9" d="M6.18,28.02c2.06,3.62,5.48,6.37,9.57,7.54,1.41,.4,2.9,.62,4.44,.62,3.44,0,6.63-1.08,9.25-2.92-.58-1.25-2.07-2.14-3.36-2.25-.59-.05-1.19,.03-1.78-.08-.54-.1-1.02-.34-1.45-.67-.63-.5-1.14-1.19-1.52-1.91-.63-1.21-1.01-2.54-1.74-3.68-.71-1.12-1.82-2.05-3.13-2.25-1.31-.2-2.79,.53-3.18,1.79-.22,.73-.08,1.52-.05,2.28,.02,.76-.13,1.62-.75,2.07-.75,.54-1.8,.22-2.62-.21-.81-.43-1.66-.99-2.58-.88-.43,.05-.81,.26-1.12,.55h.02Z"/>
        <path class="cls-10" d="M15.75,35.56c1.41,.4,2.9,.62,4.44,.62,3.44,0,6.63-1.08,9.25-2.92,4.06-2.85,6.74-7.53,6.85-12.84v-.34c0-5.06-2.34-9.58-5.99-12.53-2.03-1.64-4.46-2.8-7.13-3.3,1.32,3.05,2.18,6.3,2.56,9.61,.1,.91,.17,1.83,.2,2.75,.05,1.43,0,2.87-.14,4.29-.1,1.02-.25,2.04-.44,3.05-.39,2.02-.99,4.04-2.11,5.76-.12,.19-.26,.38-.39,.56-.76,1.02-1.7,1.91-2.7,2.7-1.35,1.05-2.83,1.92-4.41,2.6h.01Z"/>
        <path class="cls-4" d="M0,19.95c0,5.33,2.08,10.34,5.84,14.11,3.77,3.77,8.78,5.84,14.11,5.84,.86,0,1.72-.05,2.56-.16,.42-.05,.73-.41,.73-.83,0-.5-.44-.89-.94-.83-.77,.1-1.56,.15-2.35,.15-4.89,0-9.48-1.9-12.93-5.36-3.45-3.45-5.36-8.05-5.36-12.93S3.57,10.48,7.02,7.02C10.48,3.57,15.07,1.67,19.95,1.67c.79,0,1.58,.05,2.35,.15,.5,.06,.94-.32,.94-.83,0-.42-.31-.77-.73-.83-.84-.11-1.69-.16-2.56-.16C14.62,0,9.61,2.08,5.84,5.84,2.08,9.61,0,14.62,0,19.95Z"/>
        <path class="cls-7" d="M21.89,43.88h-3.17v1.82h3.17v-1.82Z"/>
        <path class="cls-6" d="M13.65,46.41c0,.39,.16,.75,.42,1.01,.26,.26,.62,.42,1.01,.42h10.16c.79,0,1.43-.64,1.43-1.43,0-.39-.16-.75-.42-1.01-.26-.26-.62-.42-1.01-.42H15.07c-.79,0-1.43,.64-1.43,1.43h.01Z"/>
        <path class="cls-4" d="M13.65,46.41c0,.39,.16,.75,.42,1.01,.26,.26,.62,.42,1.01,.42h7.85c.79,0,1.43-.64,1.43-1.43,0-.39-.16-.75-.42-1.01-.26-.26-.62-.42-1.01-.42h-7.85c-.79,0-1.43,.64-1.43,1.43Z"/>
        <path class="cls-5" d="M9.72,27.64c.21,0,.43-.06,.62-.19,.51-.34,.64-1.03,.3-1.54-1.2-1.77-1.83-3.84-1.83-5.99,0-3.01,1.28-5.9,3.51-7.93,.45-.41,.49-1.12,.08-1.57s-1.12-.49-1.57-.08c-2.69,2.45-4.24,5.94-4.24,9.57,0,2.59,.76,5.09,2.21,7.23,.21,.32,.56,.49,.92,.49h0Z"/>
      </g>
    </g>
  </g>
</svg>