<?xml version="1.0" encoding="UTF-8"?>
<svg id="Layer_2" data-name="Layer 2" xmlns="http://www.w3.org/2000/svg" viewBox="0 0 66.1 48.78">
  <defs>
    <style>
      .cls-1 {
        fill: #ecf9fb;
      }

      .cls-2 {
        fill: #fdc00f;
      }

      .cls-3 {
        fill: #118995;
      }

      .cls-4 {
        fill: #a2e2e8;
      }

      .cls-5 {
        opacity: .2;
      }
    </style>
  </defs>
  <g id="Layer_1-2" data-name="Layer 1">
    <g>
      <g>
        <polygon class="cls-3" points="36.66 2.74 29.44 2.74 0 2.74 0 48.78 29.44 48.78 36.66 48.78 66.1 48.78 66.1 2.74 36.66 2.74"/>
        <g>
          <path class="cls-1" d="M62.49,44.5c-9.54-3.65-19.9-3.65-29.44,0V2.74c9.54-3.66,19.9-3.66,29.44,0,0,13.92,0,27.84,0,41.75Z"/>
          <g>
            <path class="cls-2" d="M58.2,6.09c-.05,0-.1,0-.15-.02-6.72-1.78-13.83-1.78-20.56,0-.32,.09-.65-.11-.73-.43-.09-.32,.11-.65,.43-.73,6.93-1.83,14.25-1.83,21.18,0,.32,.08,.51,.41,.43,.73-.07,.27-.31,.45-.58,.45Z"/>
            <path class="cls-2" d="M58.2,10.87c-.05,0-.1,0-.15-.02-6.73-1.78-13.83-1.78-20.56,0-.32,.09-.65-.11-.73-.43-.08-.32,.11-.65,.43-.73,6.93-1.83,14.25-1.83,21.17,0,.32,.08,.51,.41,.43,.73-.07,.27-.31,.45-.58,.45Z"/>
            <path class="cls-2" d="M58.2,15.66c-.05,0-.1,0-.15-.02-6.72-1.78-13.83-1.78-20.56,0-.32,.09-.65-.11-.73-.43-.09-.32,.11-.65,.43-.73,6.93-1.83,14.25-1.83,21.18,0,.32,.09,.51,.41,.43,.73-.07,.27-.31,.45-.58,.45Z"/>
            <path class="cls-2" d="M58.2,20.44c-.05,0-.1,0-.15-.02-6.73-1.78-13.83-1.78-20.56,0-.32,.09-.65-.11-.73-.43-.08-.32,.11-.65,.43-.73,6.93-1.83,14.25-1.83,21.17,0,.32,.09,.51,.41,.43,.73-.07,.27-.31,.45-.58,.45Z"/>
            <path class="cls-2" d="M37.33,25.22c-.27,0-.51-.18-.58-.45-.09-.32,.11-.65,.43-.73,6.93-1.83,14.25-1.83,21.18,0,.32,.09,.51,.41,.43,.73-.08,.32-.41,.51-.73,.43-6.72-1.78-13.83-1.78-20.56,0-.05,.01-.1,.02-.15,.02Z"/>
            <path class="cls-2" d="M37.33,30.01c-.27,0-.51-.18-.58-.45-.09-.32,.11-.65,.43-.73,6.93-1.83,14.25-1.83,21.17,0,.32,.09,.51,.41,.43,.73-.08,.32-.41,.51-.73,.43-6.73-1.78-13.83-1.78-20.56,0-.05,.01-.1,.02-.15,.02Z"/>
            <path class="cls-2" d="M58.2,34.79c-.05,0-.1,0-.15-.02-6.73-1.78-13.83-1.78-20.56,0-.32,.09-.65-.11-.73-.43-.09-.32,.11-.65,.43-.73,6.93-1.83,14.25-1.83,21.17,0,.32,.08,.51,.41,.43,.73-.07,.27-.31,.45-.58,.45Z"/>
            <path class="cls-2" d="M37.33,39.57c-.27,0-.51-.18-.58-.45-.09-.32,.11-.65,.43-.73,6.92-1.83,14.25-1.83,21.17,0,.32,.09,.51,.41,.43,.73s-.41,.51-.73,.43c-6.73-1.78-13.84-1.78-20.56,0-.05,.01-.1,.02-.15,.02Z"/>
          </g>
        </g>
        <g>
          <path class="cls-1" d="M33.05,44.5c-9.54-3.65-19.9-3.65-29.44,0V2.74C13.15-.91,23.51-.91,33.05,2.74c0,13.92,0,27.84,0,41.75Z"/>
          <g>
            <path class="cls-2" d="M28.77,6.09c-.05,0-.1,0-.15-.02-6.72-1.78-13.83-1.78-20.56,0-.32,.09-.65-.11-.73-.43-.08-.32,.11-.65,.43-.73,6.93-1.83,14.25-1.83,21.17,0,.32,.08,.51,.41,.43,.73-.07,.27-.31,.45-.58,.45Z"/>
            <path class="cls-2" d="M7.9,10.87c-.27,0-.51-.18-.58-.45-.08-.32,.11-.65,.43-.73,6.93-1.83,14.25-1.83,21.17,0,.32,.08,.51,.41,.43,.73-.08,.32-.41,.51-.73,.43-6.73-1.78-13.84-1.78-20.56,0-.05,.01-.1,.02-.15,.02Z"/>
            <path class="cls-2" d="M28.77,15.66c-.05,0-.1,0-.15-.02-6.72-1.78-13.83-1.78-20.56,0-.32,.09-.65-.11-.73-.43-.08-.32,.11-.65,.43-.73,6.93-1.83,14.25-1.83,21.17,0,.32,.09,.51,.41,.43,.73-.07,.27-.31,.45-.58,.45Z"/>
            <path class="cls-2" d="M7.9,20.44c-.27,0-.51-.18-.58-.45-.08-.32,.11-.65,.43-.73,6.93-1.83,14.25-1.83,21.17,0,.32,.09,.51,.41,.43,.73-.08,.32-.41,.51-.73,.43-6.73-1.78-13.84-1.78-20.56,0-.05,.01-.1,.02-.15,.02Z"/>
            <path class="cls-2" d="M28.77,25.22c-.05,0-.1,0-.15-.02-6.73-1.78-13.84-1.78-20.56,0-.32,.09-.65-.11-.73-.43-.08-.32,.11-.65,.43-.73,6.93-1.83,14.25-1.83,21.17,0,.32,.09,.51,.41,.43,.73-.07,.27-.31,.45-.58,.45Z"/>
            <path class="cls-2" d="M7.9,30.01c-.27,0-.51-.18-.58-.45-.08-.32,.11-.65,.43-.73,6.92-1.83,14.25-1.83,21.17,0,.32,.09,.51,.41,.43,.73-.08,.32-.41,.51-.73,.43-6.73-1.78-13.84-1.78-20.56,0-.05,.01-.1,.02-.15,.02Z"/>
            <path class="cls-2" d="M7.9,34.79c-.27,0-.51-.18-.58-.45-.08-.32,.11-.65,.43-.73,6.93-1.83,14.25-1.83,21.17,0,.32,.08,.51,.41,.43,.73-.08,.32-.41,.51-.73,.43-6.73-1.78-13.83-1.78-20.56,0-.05,.01-.1,.02-.15,.02Z"/>
            <path class="cls-2" d="M7.9,39.57c-.27,0-.51-.18-.58-.45-.08-.32,.11-.65,.43-.73,6.92-1.83,14.24-1.83,21.17,0,.32,.09,.51,.41,.43,.73s-.41,.51-.73,.43c-6.73-1.78-13.84-1.78-20.56,0-.05,.01-.1,.02-.15,.02Z"/>
          </g>
        </g>
        <g>
          <path class="cls-4" d="M3.61,44.5h29.44c-9.54-3.65-19.9-3.65-29.44,0Z"/>
          <path class="cls-4" d="M33.05,44.5h29.44c-9.54-3.65-19.9-3.65-29.44,0Z"/>
        </g>
        <path class="cls-5" d="M62.49,2.74c0,13.92,0,27.84,0,41.75H3.61l2,2h58.87V4.74l-2-2Z"/>
      </g>
      <path class="cls-5" d="M33.05,44.5s-.04-.65-.1-1.79c-.04-1.14-.14-2.77-.18-4.73-.04-1.96-.13-4.24-.16-6.69-.04-2.45-.05-5.06-.06-7.67,.01-2.61,.02-5.22,.06-7.67,.03-2.45,.12-4.73,.16-6.69,.04-1.96,.14-3.59,.18-4.73,.06-1.14,.1-1.79,.1-1.79,0,0,.04,.65,.1,1.79,.04,1.14,.14,2.77,.18,4.73,.04,1.96,.13,4.24,.16,6.69,.04,2.45,.05,5.06,.06,7.67-.01,2.61-.02,5.22-.06,7.67-.03,2.45-.12,4.73-.16,6.69-.04,1.96-.14,3.59-.18,4.73-.06,1.14-.1,1.79-.1,1.79Z"/>
    </g>
  </g>
</svg>