<?xml version="1.0" encoding="UTF-8"?>
<svg id="Layer_2" data-name="Layer 2" xmlns="http://www.w3.org/2000/svg" xmlns:xlink="http://www.w3.org/1999/xlink" viewBox="0 0 97 110">
  <defs>
    <style>
      .cls-1 {
        fill: none;
      }

      .cls-2 {
        clip-path: url(#clippath);
      }

      .cls-3 {
        fill: #fdc00f;
      }

      .cls-4 {
        fill: #16b6c6;
      }

      .cls-5 {
        fill: #fff;
        isolation: isolate;
        opacity: .3;
      }
    </style>
    <clipPath id="clippath">
      <rect class="cls-1" width="97" height="110"/>
    </clipPath>
  </defs>
  <g id="Layer_1-2" data-name="Layer 1">
    <g class="cls-2">
      <g>
        <path class="cls-3" d="M48.5,110c-11.41,0-17.58-28.33-17.58-55S37.09,0,48.5,0s17.58,28.33,17.58,55-6.17,55-17.58,55Zm0-106.38c-6.6,0-13.97,21.11-13.97,51.38s7.36,51.38,13.97,51.38,13.97-21.11,13.97-51.38S55.1,3.62,48.5,3.62Z"/>
        <path class="cls-3" d="M85.82,86.74c-10.87,0-28.55-6.31-46.11-16.47-12.43-7.19-23.32-15.4-30.63-23.13C1.18,38.75-1.65,31.97,.94,27.5c1.61-2.81,5.07-4.22,10.24-4.22,10.87,0,28.55,6.3,46.11,16.48,12.43,7.2,23.32,15.4,30.63,23.14,7.9,8.35,10.73,15.14,8.16,19.62-1.61,2.81-5.07,4.22-10.24,4.22h-.02ZM11.18,26.9c-2.6,0-5.95,.42-7.11,2.41-1.63,2.81,1.23,8.53,7.63,15.31,7.09,7.48,17.68,15.47,29.81,22.48,17.06,9.86,34.05,16,44.3,16,2.6,0,5.95-.42,7.11-2.41,1.63-2.81-1.23-8.53-7.63-15.31-7.09-7.48-17.68-15.47-29.81-22.48C38.42,33.03,21.44,26.9,11.18,26.9Z"/>
        <path class="cls-3" d="M11.18,86.74c-5.17,0-8.63-1.41-10.24-4.22-5.72-9.91,15.72-29.42,38.79-42.76,17.58-10.16,35.26-16.48,46.11-16.48,5.17,0,8.63,1.41,10.24,4.22,2.59,4.47-.24,11.25-8.14,19.62-7.31,7.74-18.2,15.94-30.63,23.13-17.58,10.17-35.26,16.49-46.13,16.49ZM85.84,26.9c-10.28,0-27.24,6.13-44.3,16C15.34,58.03,.76,74.96,4.07,80.71c1.16,1.99,4.51,2.41,7.11,2.41,10.28,0,27.24-6.13,44.32-16,12.14-7.01,22.72-15,29.81-22.48,6.4-6.78,9.26-12.5,7.63-15.31-1.16-1.99-4.51-2.41-7.11-2.41v-.02Z"/>
        <path class="cls-4" d="M37.12,55c0-6.29,5.1-11.4,11.38-11.4s11.38,5.11,11.38,11.4-5.08,11.39-11.38,11.39-11.38-5.1-11.38-11.39Z"/>
        <path class="cls-5" d="M39.16,53.28c0-4.08,3.31-7.39,7.38-7.39s7.38,3.31,7.38,7.39-3.31,7.39-7.38,7.39-7.38-3.31-7.38-7.39Z"/>
        <path class="cls-4" d="M19.83,25.27c0,2.95-2.39,5.35-5.34,5.35s-5.34-2.4-5.34-5.35,2.39-5.34,5.34-5.34,5.34,2.39,5.34,5.34Z"/>
        <path class="cls-4" d="M40.79,84.93c0,2.95-2.39,5.34-5.34,5.34s-5.34-2.39-5.34-5.34,2.39-5.35,5.34-5.35,5.34,2.39,5.34,5.35Z"/>
        <path class="cls-4" d="M75.42,28.01c0,2.95-2.39,5.34-5.34,5.34s-5.34-2.39-5.34-5.34,2.39-5.35,5.34-5.35,5.34,2.39,5.34,5.35Z"/>
        <path class="cls-5" d="M72.87,26.97c0,2.02-1.63,3.65-3.64,3.65s-3.64-1.63-3.64-3.65,1.63-3.64,3.64-3.64,3.64,1.63,3.64,3.64Z"/>
        <path class="cls-5" d="M17.37,24.37c0,2.01-1.63,3.64-3.64,3.64s-3.64-1.63-3.64-3.64,1.63-3.65,3.64-3.65,3.64,1.64,3.64,3.65Z"/>
        <path class="cls-5" d="M38.06,84.18c0,2.02-1.63,3.65-3.64,3.65s-3.64-1.63-3.64-3.65,1.63-3.64,3.64-3.64,3.64,1.63,3.64,3.64Z"/>
      </g>
    </g>
  </g>
</svg>