<?xml version="1.0" encoding="UTF-8"?>
<svg id="Layer_2" data-name="Layer 2" xmlns="http://www.w3.org/2000/svg" xmlns:xlink="http://www.w3.org/1999/xlink" viewBox="0 0 45.08 46.6">
  <defs>
    <style>
      .cls-1 {
        fill: none;
      }

      .cls-2 {
        clip-path: url(#clippath);
      }

      .cls-3, .cls-4 {
        fill: #fff;
      }

      .cls-5 {
        fill: #fcca03;
      }

      .cls-6 {
        fill: #fdc000;
      }

      .cls-7 {
        fill: #1771de;
      }

      .cls-8 {
        fill: #297ff2;
      }

      .cls-4 {
        isolation: isolate;
        opacity: .03;
      }
    </style>
    <clipPath id="clippath">
      <rect class="cls-1" width="45.08" height="46.6"/>
    </clipPath>
  </defs>
  <g id="Layer_1-2" data-name="Layer 1">
    <g class="cls-2">
      <g>
        <path class="cls-8" d="M28.32,40.74v.72c0,2.84-2.3,5.14-5.14,5.14h-1.17c-.15,0-.29,0-.43-.02-2.62-.22-4.7-2.44-4.7-5.12v-.72h11.44Z"/>
        <path class="cls-5" d="M35.17,23.83c0,4.17-2.02,7.86-5.14,10.15-.94,.69-1.53,1.74-1.68,2.89-.02,.18-.03,.35-.03,.53v3.33h-11.44v-3.29c0-.19-.01-.39-.04-.57-.16-1.15-.78-2.19-1.73-2.89-3.11-2.29-5.14-5.99-5.14-10.15,0-6.92,5.5-12.5,12.42-12.6,.4,0,.8,0,1.2,.04,.69,.06,1.36,.16,2.01,.33,5.49,1.36,9.57,6.32,9.57,12.23Z"/>
        <path class="cls-6" d="M35.17,23.83c0,4.17-2.02,7.86-5.14,10.15-.94,.69-1.53,1.74-1.68,2.89-.02,.18-.03,.35-.03,.53v3.33h-5.37v-3.29c0-.19-.01-.39-.04-.57-.16-1.15-.78-2.19-1.73-2.89-3.11-2.29-5.14-5.99-5.14-10.15,0-5.93,4.04-10.88,9.55-12.23,5.49,1.36,9.57,6.32,9.57,12.23h.01Z"/>
        <path class="cls-3" d="M27.46,21.83c-.54-.42-1.38-.48-1.91,0-.62,.57-.58,1.56-.66,2.32-.06,.68-.12,1.35-.18,2.03-.54,.12-1.1,.17-1.63,.18-.77,.01-1.62,0-2.44-.1,0-.06-.01-.11-.02-.16-.15-1.39-.48-4.25-2.41-4.24-1.79,0-1.9,2.58-1.07,3.66,.65,.85,1.7,1.22,2.78,1.4,.02,.29,.03,.59,.05,.88,.16,3.88,.11,7.77,.13,11.65,0,.5,.78,.47,.77-.03-.01-2.24-.02-4.48-.03-6.72-.01-1.88,.02-3.79-.13-5.68,.36,.04,.72,.06,1.05,.08,.94,.06,1.95,.07,2.89-.11-.3,4.08-.39,8.17-.28,12.26,.01,.5,.79,.47,.77-.03-.09-3.48-.04-6.96,.16-10.44,.04-.66,.08-1.33,.13-1.99,.61-.2,1.18-.51,1.67-.96,1.03-.96,1.68-2.97,.36-4Zm-8.83,3.89c-.68-.33-1.19-.89-1.24-1.66-.05-.81,.59-1.95,1.46-1.15,.6,.55,.76,1.64,.89,2.41,.05,.27,.08,.54,.11,.82-.43-.1-.84-.23-1.22-.41h0Zm8.48-1.15c-.38,.67-.96,1.09-1.62,1.37,.07-.83,.14-1.65,.23-2.48,.04-.31,.05-.75,.28-1,.27-.29,.7-.25,.99-.02,.64,.49,.46,1.53,.12,2.13Z"/>
        <path class="cls-7" d="M28.84,37.98h-12.59c-.73,0-1.33,.6-1.33,1.33v.43c0,.74,.6,1.33,1.33,1.33h12.59c.73,0,1.33-.6,1.33-1.33v-.43c0-.73-.6-1.33-1.33-1.33Z"/>
        <path class="cls-3" d="M31.77,27.92c-.1,0-.2-.02-.3-.05-.49-.17-.75-.7-.59-1.19,.3-.88,.45-1.8,.45-2.74,0-2.52-1.09-4.87-2.99-6.45-.4-.33-.45-.92-.12-1.32,.33-.4,.92-.45,1.32-.12,2.33,1.93,3.67,4.81,3.67,7.89,0,1.14-.18,2.27-.55,3.34-.13,.39-.5,.64-.89,.64Z"/>
        <path class="cls-3" d="M31.71,29.19c0,.58-.47,1.05-1.05,1.05s-1.05-.47-1.05-1.05,.47-1.05,1.05-1.05,1.05,.47,1.05,1.05Z"/>
        <path class="cls-4" d="M22.76,37.98v8.62h-.75c-.15,0-.29,0-.43-.02-2.62-.22-4.7-2.44-4.7-5.12v-.39h-.63c-.73,0-1.33-.6-1.33-1.33v-.44c0-.73,.6-1.33,1.33-1.33h6.51Z"/>
        <path class="cls-3" d="M6.33,21.66H1.63c-.9,0-1.63,.73-1.63,1.63v.28c0,.9,.73,1.63,1.63,1.63H6.33c.9,0,1.63-.73,1.63-1.63v-.28c0-.9-.73-1.63-1.63-1.63Z"/>
        <path class="cls-3" d="M43.46,21.66h-4.7c-.9,0-1.63,.73-1.63,1.63v.28c0,.9,.73,1.63,1.63,1.63h4.7c.9,0,1.63-.73,1.63-1.63v-.28c0-.9-.73-1.63-1.63-1.63Z"/>
        <path class="cls-3" d="M20.77,1.63V6.33c0,.9,.73,1.63,1.63,1.63h.28c.9,0,1.63-.73,1.63-1.63V1.63c0-.9-.73-1.63-1.63-1.63h-.28c-.9,0-1.63,.73-1.63,1.63Z"/>
        <path class="cls-3" d="M36.71,7.12l-3.33,3.32c-.63,.64-.63,1.67,0,2.31l.2,.2c.64,.64,1.67,.64,2.31,0l3.32-3.32c.64-.64,.64-1.67,0-2.3l-.2-.2c-.63-.64-1.67-.64-2.3,0Z"/>
        <path class="cls-3" d="M6.51,9l3.32,3.32c.64,.64,1.67,.64,2.31,0l.19-.2c.64-.64,.64-1.67,0-2.3l-3.32-3.32c-.64-.64-1.67-.64-2.31,0l-.19,.2c-.64,.64-.64,1.67,0,2.3Z"/>
      </g>
    </g>
  </g>
</svg>