<?xml version="1.0" encoding="UTF-8"?>
<svg id="Layer_2" data-name="Layer 2" xmlns="http://www.w3.org/2000/svg" xmlns:xlink="http://www.w3.org/1999/xlink" viewBox="0 0 97 110">
  <defs>
    <style>
      .cls-1 {
        fill: none;
      }

      .cls-2 {
        clip-path: url(#clippath);
      }

      .cls-3 {
        fill: #fff2cf;
      }

      .cls-4 {
        fill: #fc611f;
      }

      .cls-5 {
        fill: #fdc00f;
      }

      .cls-6 {
        fill: #a3b9c9;
      }

      .cls-7 {
        fill: #16b6c6;
      }

      .cls-8 {
        fill: #184f78;
      }

      .cls-9 {
        fill: #a2e2e8;
      }

      .cls-10 {
        fill: #fff;
        isolation: isolate;
        opacity: .3;
      }

      .cls-11 {
        opacity: .2;
      }
    </style>
    <clipPath id="clippath">
      <rect class="cls-1" width="97" height="110"/>
    </clipPath>
  </defs>
  <g id="Layer_1-2" data-name="Layer 1">
    <g class="cls-2">
      <g>
        <path class="cls-5" d="M21.19,61.41c23.44,18.71,3.77,34.13,20.37,44.95,14.91,9.71,43.08,1.03,53.58-38.27C102.88,39.12,85.81,10.66,57.77,1.84,20.59-9.83-9.46,36.92,21.19,61.41Zm23.28,31.25c.97-3.62,5.81-5.46,10.84-4.11,5,1.35,8.3,5.37,7.33,8.99-.96,3.62-5.81,5.47-10.83,4.12-5.03-1.35-8.3-5.38-7.31-9h-.03Z"/>
        <path class="cls-9" d="M17.38,26.6c-1.28,4.81,1.55,9.74,6.35,11.02,4.78,1.28,9.71-1.58,10.99-6.36,1.28-4.79-1.57-9.74-6.35-11.02s-9.71,1.55-10.99,6.36Z"/>
        <path class="cls-8" d="M35.91,13.99c-1.28,4.79,1.54,9.73,6.34,11.01,4.78,1.29,9.72-1.55,10.99-6.36,1.28-4.79-1.57-9.74-6.34-11.02-4.8-1.28-9.71,1.55-10.99,6.37Z"/>
        <path class="cls-4" d="M57.95,21.09c-1.28,4.81,1.55,9.74,6.35,11.02,4.78,1.28,9.71-1.55,10.99-6.36,1.28-4.79-1.57-9.74-6.35-11.02-4.77-1.28-9.71,1.57-10.99,6.36Z"/>
        <path class="cls-7" d="M71.14,40.2c-1.28,4.82,1.55,9.74,6.35,11.02,4.77,1.28,9.71-1.55,10.99-6.36,1.28-4.79-1.57-9.74-6.35-11.02s-9.71,1.55-10.99,6.36Z"/>
        <path class="cls-3" d="M70.87,63.48c-1.28,4.79,1.57,9.73,6.35,11.02,4.8,1.28,9.71-1.56,10.99-6.37,1.28-4.79-1.57-9.73-6.35-11.02-4.78-1.28-9.71,1.56-10.99,6.37Z"/>
        <g class="cls-11">
          <path d="M31.13,21.54c1.46,2.09,2.04,4.79,1.35,7.44-1.28,4.79-6.22,7.65-10.99,6.37-1.04-.27-1.93-.74-2.76-1.33,1.16,1.69,2.87,2.99,5,3.58,4.78,1.28,9.71-1.58,10.99-6.37,1.01-3.78-.56-7.6-3.59-9.69Z"/>
          <path d="M86.23,42.61c-1.27,4.79-6.21,7.65-10.98,6.36-1.04-.27-1.93-.74-2.76-1.3,1.16,1.69,2.87,2.99,5,3.55,4.77,1.28,9.71-1.55,10.99-6.36,1.01-3.78-.56-7.6-3.59-9.69,1.46,2.09,2.06,4.79,1.34,7.44Z"/>
          <path d="M75.29,25.75c1.01-3.78-.56-7.6-3.59-9.7,1.46,2.1,2.06,4.79,1.35,7.45-1.28,4.81-6.22,7.64-10.99,6.36-1.03-.27-1.93-.74-2.76-1.33,1.17,1.69,2.87,2.99,5,3.58,4.78,1.28,9.71-1.55,10.99-6.36Z"/>
          <path d="M49.65,8.95c1.46,2.09,2.05,4.79,1.35,7.44-1.28,4.79-6.21,7.65-10.99,6.37-1.03-.27-1.93-.75-2.76-1.33,1.17,1.69,2.87,2.99,5,3.57,4.78,1.29,9.72-1.55,10.99-6.36,1.01-3.78-.56-7.6-3.59-9.69Z"/>
          <path d="M84.62,58.44c1.46,2.09,2.06,4.79,1.35,7.44-1.28,4.81-6.19,7.65-10.99,6.37-1.04-.27-1.93-.75-2.76-1.33,1.16,1.69,2.87,2.99,5,3.57,4.8,1.29,9.71-1.55,10.99-6.36,1.01-3.78-.56-7.6-3.59-9.69Z"/>
        </g>
        <path class="cls-8" d="M17.65,67.77c-8.19,14.24-12,27.41-8.5,29.44,3.5,2.02,12.99-7.87,21.17-22.11,8.19-14.23,12-27.41,8.5-29.43-3.5-2.03-12.98,7.87-21.17,22.08v.02Z"/>
        <path class="cls-4" d="M4.78,95.59c.89-.59,1.84-1.2,2.67-1.11,10.38,1.35,4.3,17.79-6.13,15.25-.92-.22-1.32-.58-1.32-.56,0,0,.45-.34,.9-.97,.47-.63,.65-1.53,.56-2.45-.05-.92-.25-2-.25-3.28s.14-2.86,1.3-4.59c.7-.92,1.48-1.73,2.29-2.32l-.02,.03Z"/>
        <path class="cls-6" d="M8.47,89.22l-3.56,6.17,7.91,4.57,3.55-6.17-7.9-4.57Z"/>
        <path class="cls-10" d="M1.21,109.69c.25-.23,.52-.48,.76-.68,.12-.07,.23-.13,.34-.22l-.13-.09,5.54-9.63c1.99-8.7,7.06-20.89,14.39-33.61,4.11-7.13,8.41-13.54,12.54-18.89-4.53,2.88-11.1,10.88-17.02,21.16-4.69,8.14-7.92,15.92-9.2,21.47l-3.54,6.14,.09,.04s-.16,.09-.23,.14c-.8,.61-1.59,1.39-2.28,2.32-1.17,1.73-1.3,3.37-1.3,4.58,0,1.28,.2,2.36,.24,3.29,.09,.92-.09,1.82-.56,2.45-.42,.63-.92,.94-.89,.96,0-.02,.38,.3,1.21,.52l.04,.05Z"/>
      </g>
    </g>
  </g>
</svg>