<?xml version="1.0" encoding="UTF-8"?>
<svg id="Layer_2" data-name="Layer 2" xmlns="http://www.w3.org/2000/svg" viewBox="0 0 69.29 60.55">
  <defs>
    <style>
      .cls-1 {
        fill: #f4cd1e;
      }

      .cls-2 {
        fill: #00bbc6;
      }

      .cls-3 {
        fill: #00b8ee;
      }

      .cls-4 {
        fill: #00b2ef;
      }

      .cls-5 {
        fill: #ed848e;
      }

      .cls-6 {
        fill: #eb7386;
      }

      .cls-7 {
        fill: #f6d719;
      }

      .cls-8 {
        fill: #fbbd1f;
      }

      .cls-9 {
        fill: #e98028;
      }

      .cls-10 {
        fill: #f09e99;
      }

      .cls-11 {
        fill: #938b62;
      }

      .cls-12 {
        fill: #324250;
      }

      .cls-13 {
        fill: #bbae79;
      }

      .cls-14 {
        fill: #aea372;
      }

      .cls-15 {
        fill: #d29421;
      }

      .cls-16 {
        fill: #c4c7e4;
      }

      .cls-17 {
        fill: #c8ba8e;
      }

      .cls-18 {
        fill: #94b0dc;
      }

      .cls-19 {
        fill: #719ad0;
      }

      .cls-20 {
        fill: #72704e;
      }
    </style>
  </defs>
  <g id="Layer_1-2" data-name="Layer 1">
    <g>
      <path class="cls-15" d="M11.8,28.14l-.84,.44,3.81,7.28,.84-.44-3.81-7.28Z"/>
      <path class="cls-8" d="M65.48,0L11.56,28.26l3.81,7.28L69.29,7.28l-3.81-7.28Z"/>
      <path class="cls-7" d="M50.33,17.21l4.63-2.43,3.46-11.09-4.7,2.46c-1.14,3.68-2.27,7.37-3.4,11.06h0Z"/>
      <path class="cls-7" d="M36.99,24.21l3.03-1.58c1.14-3.69,2.28-7.39,3.43-11.08l-3,1.57c-1.15,3.7-2.31,7.39-3.46,11.09h0Z"/>
      <path class="cls-7" d="M68.79,6.33L14.87,34.59l.5,.96L69.29,7.28l-.5-.96Z"/>
      <path class="cls-9" d="M47.59,60.55l.56-1,10.36-28.68L.56,35.79l-.56,1,47.59,23.75h0Zm-2.46-21.39l-3.3,8.97-14.03-7.05,17.33-1.92Z"/>
      <path class="cls-8" d="M48.15,59.55l10.91-29.68L.56,35.8l47.59,23.75Zm-2.1-21.27l-3.3,8.97-14.39-7.18,17.69-1.79Z"/>
      <path class="cls-1" d="M44.93,41.32l-2.19,5.93-6.79-3.39-12.28,3.47,7.17,3.57,22.86-6.47,2.3-6.26-11.07,3.13Z"/>
      <path class="cls-1" d="M10.96,40.98l6.84,3.42,12.28-3.47-1.71-.85,7.37-.75,22.15-6.27,1.17-3.18-13.76,1.39L10.96,40.98Z"/>
      <path class="cls-5" d="M17.11,9.63l-3.7-1.8c-2.05-.99-4.51-.13-5.5,1.91-.99,2.05-.14,4.51,1.91,5.5l3.7,1.8,3.6-7.41Z"/>
      <path class="cls-6" d="M10.54,12.68c-.82,.48-1.82,.77-2.75,.42,.37,.91,1.06,1.69,2.01,2.14l3.7,1.8,3.6-7.41-3.7-1.8c-.11,1.93-1.18,3.87-2.86,4.85h0Z"/>
      <path class="cls-18" d="M38.03,28.92s.89,.35,1.13,.36c.49,.02,8.51-.17,8.51-.17,0,0-4.42-6.27-5.31-7.1-.36-.34-.73-.46-.73-.46l-3.59,7.37h0Z"/>
      <path class="cls-2" d="M39.04,26.85l-1.01,2.06s.89,.35,1.13,.36c.49,.02,8.51-.17,8.51-.17,0,0-.68-.47-.9-.78-1.25-.19-6.23-1.05-7.73-1.46Z"/>
      <path class="cls-19" d="M45.65,28.7c-2.44-.09-4.89-.22-7.33-.37l-.29,.59s.89,.35,1.13,.36c.34,.01,4.44-.08,6.82-.13-.11-.15-.23-.29-.33-.45Z"/>
      <path class="cls-19" d="M47.04,29.11c.39,0,.62-.01,.62-.01,0,0-.09-.13-.24-.35-.22,0-.44-.02-.66-.02,.1,.13,.19,.26,.29,.39h0Z"/>
      <path class="cls-16" d="M41.62,21.55l-.21,.44c1.62,1.9,3.16,3.87,4.68,5.87,.23,0,.47,.02,.71,.02-1.33-1.87-3.8-5.28-4.44-5.87-.36-.34-.73-.46-.73-.46h0Z"/>
      <path class="cls-12" d="M45.19,29.16c1.39-.03,2.47-.06,2.47-.06,0,0-.63-.89-1.46-2.05-.15,.76-.52,1.5-1.01,2.11Z"/>
      <path class="cls-4" d="M40.61,25.85L14.82,13.34l-1.71,3.52,24.48,11.87s.03,.02,.05,.03c.77,.37,1.17,.45,1.7,.24,.54-.22,1.65-1.39,.52-2.37-.01-.01-.36-.36,.38-.04l.35-.73Z"/>
      <path class="cls-4" d="M40.8,25.46L15.01,12.95l1.71-3.52,24.48,11.87s.03,.02,.05,.02c.77,.37,1.08,.65,1.24,1.19,.16,.55-.08,2.16-1.55,1.88-.02,0-.51-.07,.2,.32l-.36,.74h0Z"/>
      <path class="cls-3" d="M41.38,24.23L15.61,11.73l-1.35,2.78,25.78,12.51s.03,.02,.05,.03c.77,.37,1.7,.05,2.07-.71,.37-.77,.05-1.7-.72-2.07-.02-.01-.04-.02-.06-.03h0Z"/>
      <path class="cls-13" d="M15.55,8.87c-1.73,2.18-2.96,4.71-3.6,7.42,.74,.36,1.46,.71,2.2,1.07,.64-2.71,1.87-5.24,3.6-7.42-.74-.36-1.46-.71-2.2-1.07Z"/>
      <path class="cls-17" d="M12.54,14.28c-.1,.29-.2,.59-.29,.89l2.2,1.07c.09-.3,.19-.59,.29-.89l-2.2-1.07h0Z"/>
      <path class="cls-17" d="M13.37,12.33c-.18,.37-.36,.75-.51,1.14l2.2,1.07c.16-.39,.33-.77,.51-1.14l-2.2-1.07Z"/>
      <path class="cls-11" d="M17.51,9.82c-1.46,2.31-2.69,4.84-3.6,7.42-.06,.17,.22,.45,.41,.54,.18,.09,.47,.15,.71,0,.91-2.58,2.14-5.11,3.6-7.42,.03-.23-.31-.43-.49-.52-.19-.09-.48-.15-.62-.03Z"/>
      <path class="cls-20" d="M16.83,13.17c-.55,1.12-1.14,2.21-1.65,3.34-.24,.52-.53,.97-1.05,1.14,.06,.06,.13,.1,.19,.13,.18,.09,.47,.15,.71,0,.91-2.58,2.14-5.11,3.6-7.42,0-.1-.04-.18-.11-.26-.82,.75-1.21,2.11-1.68,3.07h0Z"/>
      <path class="cls-14" d="M17.72,9.89c.1,.05-.65,1.23-1.41,2.82-.76,1.58-1.42,3.01-1.52,2.95-.1-.05,.49-1.39,1.26-2.96,.76-1.58,1.57-2.85,1.68-2.8h0Z"/>
      <path class="cls-10" d="M10.57,8.28c.28,.31,.09,.94-.44,1.42-.52,.47-1.17,.6-1.46,.29-.28-.31-.08-.95,.44-1.42,.52-.47,1.17-.6,1.46-.29Z"/>
    </g>
  </g>
</svg>