<?xml version="1.0" encoding="UTF-8"?>
<svg id="Layer_2" data-name="Layer 2" xmlns="http://www.w3.org/2000/svg" viewBox="0 0 377.76 163.11">
  <defs>
    <style>
      .cls-1 {
        opacity: .1;
      }

      .cls-2 {
        fill: #fff;
      }

      .cls-3 {
        fill: #18496b;
      }
    </style>
  </defs>
  <g id="Layer_1-2" data-name="Layer 1">
    <g>
      <path class="cls-2" d="M338.27,84.13c-6.09,0-11.79,1.5-16.94,3.96-8.67-13.39-23.66-22.28-40.79-22.28-3.59,0-7.06,.45-10.44,1.18-8.68-13.33-23.65-22.18-40.74-22.18-10.53,0-20.23,3.43-28.19,9.12C198.18,23.7,172.99,0,141.98,0s-55.7,23.22-59.1,53.01c-6.7-3.3-14.13-5.33-22.1-5.33-27.72,0-50.19,22.48-50.19,50.2,0,1.41,.3,2.74,.42,4.13-6.75,6.4-11.01,15.4-11.01,25.43,0,19.41,15.73,35.13,35.13,35.13,.12,0,.23-.03,.35-.04,1.8,.35,3.64,.57,5.54,.57H331c1.24,0,2.42-.21,3.62-.37,1.22,.12,2.4,.37,3.65,.37,21.81,0,39.49-17.67,39.49-39.48s-17.67-39.5-39.49-39.5h0Z"/>
      <g class="cls-1">
        <path class="cls-3" d="M307.28,73.97c-.71-.47-1.42-.95-2.16-1.39,.41,.58,.87,1.12,1.26,1.72,.29-.14,.61-.2,.9-.32h0Z"/>
        <path class="cls-3" d="M256.26,53.06c-.76-.51-1.52-1-2.3-1.48,.38,.55,.82,1.05,1.19,1.6,.36-.08,.75-.05,1.12-.13h0Z"/>
        <path class="cls-3" d="M356.69,88.9c3.83,6.08,6.12,13.21,6.12,20.92,0,21.81-17.67,39.5-39.49,39.5-1.25,0-2.43-.26-3.65-.37-1.2,.14-2.38,.37-3.62,.37H26.07c-1.89,0-3.73-.23-5.53-.57-.12,0-.23,.03-.35,.03-5.48,0-10.6-1.36-15.22-3.6,6.1,10.37,17.27,17.4,30.17,17.4,.12,0,.23-.03,.35-.04,1.8,.35,3.64,.57,5.54,.57H331c1.24,0,2.42-.22,3.62-.37,1.22,.11,2.4,.37,3.65,.37,21.81,0,39.49-17.68,39.49-39.48,0-15.12-8.59-28.1-21.07-34.73Z"/>
      </g>
      <g class="cls-1">
        <path class="cls-3" d="M276.01,81.69c-1.08-8.41-5.35-15.59-11.36-20.66,3.03,4.23,5.2,9.16,5.91,14.67,2.29,17.85-10.32,34.16-28.16,36.46-9.43,1.2-18.36-1.82-25.09-7.51,6.75,9.45,18.23,15.08,30.55,13.49,17.84-2.29,30.45-18.61,28.16-36.45h0Z"/>
      </g>
      <g class="cls-1">
        <path class="cls-3" d="M82.12,51.02c-7.89-3.11-16.24-2.84-23.58-.02,5.16-.61,10.52-.13,15.7,1.92,16.73,6.61,24.94,25.53,18.33,42.26-3.49,8.83-10.45,15.2-18.68,18.35,11.53-1.35,22-8.68,26.56-20.24,6.61-16.73-1.6-35.65-18.33-42.26h0Z"/>
      </g>
    </g>
  </g>
</svg>