<?xml version="1.0" encoding="UTF-8"?>
<svg id="Layer_2" data-name="Layer 2" xmlns="http://www.w3.org/2000/svg" xmlns:xlink="http://www.w3.org/1999/xlink" viewBox="0 0 124 98">
  <defs>
    <style>
      .cls-1 {
        fill: none;
      }

      .cls-2 {
        clip-path: url(#clippath);
      }

      .cls-3 {
        fill: #fff2cf;
      }

      .cls-4 {
        fill: #fc611f;
      }

      .cls-5 {
        fill: #fdc00f;
      }

      .cls-6 {
        fill: #d1dce4;
      }

      .cls-7 {
        fill: #d0f0f4;
      }

      .cls-8 {
        fill: #118995;
      }

      .cls-9 {
        fill: #16b6c6;
      }

      .cls-10 {
        fill: #184f78;
      }

      .cls-11 {
        fill: #467293;
      }

      .cls-12 {
        fill: #fff;
      }

      .cls-12, .cls-13 {
        opacity: .3;
      }

      .cls-12, .cls-13, .cls-14 {
        isolation: isolate;
      }

      .cls-15 {
        clip-path: url(#clippath-1);
      }

      .cls-14 {
        opacity: .2;
      }
    </style>
    <clipPath id="clippath">
      <rect class="cls-1" width="124" height="98"/>
    </clipPath>
    <clipPath id="clippath-1">
      <rect class="cls-1" y="35" width="54.05" height="63.75"/>
    </clipPath>
  </defs>
  <g id="Layer_1-2" data-name="Layer 1">
    <g class="cls-2">
      <g>
        <path class="cls-7" d="M124,0H0V98H124V0Z"/>
        <path class="cls-8" d="M117.56,6.41V91.59H6.44V6.41H117.56Zm6.44-6.41H0V98H124V0Z"/>
        <path class="cls-9" d="M108.7,18.84H15.3v6.41H108.7v-6.41Z"/>
        <path class="cls-9" d="M100.69,36.06H23.31v2.13H100.69v-2.13Z"/>
        <path class="cls-9" d="M100.69,49H23.31v2.14H100.69v-2.14Z"/>
        <path class="cls-9" d="M100.69,61.92H23.31v2.14H100.69v-2.14Z"/>
        <path class="cls-9" d="M83.88,74.87H23.31v2.13h60.57v-2.13Z"/>
        <path class="cls-13" d="M92.1,95.2l6.55-3.76,6.55,3.76v-16.06h-13.09v16.06Z"/>
        <path class="cls-4" d="M92.1,93.07l6.55-3.76,6.55,3.76v-16.07h-13.09v16.07Z"/>
        <path class="cls-13" d="M98.65,69.61l1.24,1.69,1.7-1.22,.67,1.99,2.02-.64v2.09l2.1,.02-.64,1.99,2,.66-1.22,1.71,1.7,1.24-1.7,1.24,1.22,1.69-2,.66,.64,1.98-2.1,.03v2.09l-2.02-.64-.67,1.98-1.7-1.21-1.24,1.68-1.24-1.68-1.72,1.21-.66-1.98-2,.64-.02-2.09-2.08-.03,.62-1.98-2-.66,1.22-1.69-1.7-1.24,1.7-1.24-1.22-1.71,2-.66-.62-1.99,2.08-.02,.02-2.09,2,.64,.66-1.99,1.72,1.22,1.24-1.69Z"/>
        <path class="cls-4" d="M98.65,67.48l1.24,1.68,1.7-1.21,.67,1.98,2.02-.64v2.1l2.1,.02-.64,1.98,2,.67-1.22,1.7,1.7,1.24-1.7,1.24,1.22,1.69-2,.66,.64,1.99-2.1,.02v2.09l-2.02-.64-.67,1.99-1.7-1.22-1.24,1.69-1.24-1.69-1.72,1.22-.66-1.99-2,.64-.02-2.09-2.08-.02,.62-1.99-2-.66,1.22-1.69-1.7-1.24,1.7-1.24-1.22-1.7,2-.67-.62-1.98,2.08-.02,.02-2.1,2,.64,.66-1.98,1.72,1.21,1.24-1.68Z"/>
        <path class="cls-12" d="M124,0H0V98S23.31,15.83,124,0Z"/>
        <g class="cls-15">
          <g>
            <path class="cls-5" d="M48.85,88.02H0v10.74H48.85v-10.74Z"/>
            <path class="cls-3" d="M15.16,88.02H5.03v10.74H15.16v-10.74Z"/>
            <path class="cls-3" d="M18.71,88.02h-2.08v10.74h2.08v-10.74Z"/>
            <path class="cls-9" d="M54.05,77.28H5.2v10.74H54.05v-10.74Z"/>
            <path class="cls-8" d="M20.36,77.28H10.23v10.74h10.13v-10.74Z"/>
            <path class="cls-8" d="M23.9,77.28h-2.08v10.74h2.08v-10.74Z"/>
            <path class="cls-10" d="M52.18,66.54H3.33v10.74H52.18v-10.74Z"/>
            <path class="cls-6" d="M18.5,66.54H8.37v10.74h10.13v-10.74Z"/>
            <path class="cls-6" d="M22.04,66.54h-2.08v10.74h2.08v-10.74Z"/>
            <path class="cls-10" d="M35.63,41.66c-2.82,2.49-7.55,2.36-7.55,2.36,0,0-.15-4.17,2.68-6.66,2.82-2.49,7.55-2.36,7.55-2.36,0,0,.15,4.17-2.68,6.66Z"/>
            <path class="cls-11" d="M37.08,36.08s-.39,.51-1.06,1.21c-.66,.7-1.59,1.6-2.56,2.46s-1.99,1.67-2.79,2.26c-.79,.59-1.37,.93-1.37,.93,0,0,.39-.51,1.06-1.21,.66-.7,1.59-1.6,2.56-2.46,.97-.86,1.99-1.67,2.79-2.25,.79-.59,1.37-.93,1.37-.93h0Z"/>
            <path class="cls-4" d="M28.08,43.86c-10.97-2.83-15.99,4.41-13.96,12.29,1.59,6.2,7.14,11.81,13.96,10.08,6.83,1.73,12.37-3.88,13.96-10.08,2.02-7.88-2.99-15.12-13.96-12.29Z"/>
            <path class="cls-14" d="M0,88.02H48.85v2.36L0,88.02Z"/>
            <path class="cls-14" d="M5.2,77.28H54.05v2.37l-48.85-2.37Z"/>
            <path class="cls-12" d="M21.94,65.81c-.06-.62-.09-1.26-.09-1.9,0-9.24,5.74-17.13,13.85-20.32-2.08-.53-4.62-.51-7.61,.26-10.97-2.83-15.99,4.41-13.96,12.29,1.08,4.19,3.96,8.1,7.82,9.67h-.01Z"/>
          </g>
        </g>
      </g>
    </g>
  </g>
</svg>