<?xml version="1.0" encoding="UTF-8"?>
<svg id="Layer_2" data-name="Layer 2" xmlns="http://www.w3.org/2000/svg" xmlns:xlink="http://www.w3.org/1999/xlink" viewBox="0 0 45.82 51.96">
  <defs>
    <style>
      .cls-1 {
        fill: none;
      }

      .cls-2 {
        clip-path: url(#clippath);
      }

      .cls-3 {
        fill: #fdc00f;
      }

      .cls-4 {
        fill: #16b6c6;
      }

      .cls-5 {
        fill: #fff;
        isolation: isolate;
        opacity: .3;
      }
    </style>
    <clipPath id="clippath">
      <rect class="cls-1" width="45.82" height="51.96"/>
    </clipPath>
  </defs>
  <g id="Layer_1-2" data-name="Layer 1">
    <g class="cls-2">
      <g>
        <path class="cls-3" d="M22.91,51.96c-5.39,0-8.31-13.38-8.31-25.98S17.52,0,22.91,0s8.31,13.38,8.31,25.98-2.91,25.98-8.31,25.98ZM22.91,1.71c-3.12,0-6.6,9.97-6.6,24.27s3.48,24.27,6.6,24.27,6.6-9.97,6.6-24.27S26.03,1.71,22.91,1.71Z"/>
        <path class="cls-3" d="M40.54,40.97c-5.14,0-13.48-2.98-21.78-7.78-5.87-3.4-11.01-7.27-14.47-10.93C.56,18.3-.78,15.1,.44,12.99c.76-1.33,2.39-1.99,4.84-1.99,5.14,0,13.48,2.98,21.78,7.79,5.87,3.4,11.01,7.27,14.47,10.93,3.73,3.94,5.07,7.15,3.85,9.27-.76,1.33-2.39,1.99-4.84,1.99h0ZM5.28,12.71c-1.23,0-2.81,.2-3.36,1.14-.77,1.33,.58,4.03,3.61,7.23,3.35,3.53,8.35,7.31,14.08,10.62,8.06,4.66,16.08,7.56,20.93,7.56,1.23,0,2.81-.2,3.36-1.14,.77-1.33-.58-4.03-3.61-7.23-3.35-3.53-8.35-7.31-14.08-10.62-8.06-4.66-16.08-7.56-20.93-7.56Z"/>
        <path class="cls-3" d="M5.28,40.97c-2.44,0-4.08-.67-4.84-1.99-2.7-4.68,7.43-13.9,18.32-20.2,8.31-4.8,16.65-7.79,21.78-7.79,2.44,0,4.08,.67,4.84,1.99,1.22,2.11-.11,5.31-3.85,9.27-3.45,3.65-8.6,7.53-14.47,10.93-8.31,4.8-16.65,7.79-21.79,7.79ZM40.55,12.71c-4.85,0-12.87,2.89-20.93,7.56C7.25,27.41,.36,35.41,1.92,38.12c.55,.94,2.13,1.14,3.36,1.14,4.85,0,12.87-2.89,20.94-7.56,5.73-3.31,10.73-7.09,14.08-10.62,3.03-3.2,4.38-5.9,3.61-7.23-.55-.94-2.13-1.14-3.36-1.14h0Z"/>
        <path class="cls-4" d="M17.53,25.98c0-2.97,2.41-5.38,5.38-5.38s5.38,2.41,5.38,5.38-2.4,5.38-5.38,5.38-5.38-2.41-5.38-5.38Z"/>
        <path class="cls-5" d="M18.5,25.17c0-1.93,1.56-3.49,3.49-3.49s3.49,1.57,3.49,3.49-1.56,3.49-3.49,3.49-3.49-1.57-3.49-3.49Z"/>
        <path class="cls-4" d="M9.37,11.94c0,1.39-1.13,2.52-2.52,2.52s-2.52-1.13-2.52-2.52,1.13-2.52,2.52-2.52,2.52,1.13,2.52,2.52Z"/>
        <path class="cls-4" d="M19.27,40.12c0,1.39-1.13,2.52-2.52,2.52s-2.52-1.13-2.52-2.52,1.13-2.52,2.52-2.52,2.52,1.13,2.52,2.52Z"/>
        <path class="cls-4" d="M35.62,13.23c0,1.39-1.13,2.52-2.52,2.52s-2.52-1.13-2.52-2.52,1.13-2.52,2.52-2.52,2.52,1.13,2.52,2.52Z"/>
        <path class="cls-5" d="M34.42,12.74c0,.95-.77,1.72-1.72,1.72s-1.72-.77-1.72-1.72,.77-1.72,1.72-1.72,1.72,.77,1.72,1.72Z"/>
        <path class="cls-5" d="M8.2,11.51c0,.95-.77,1.72-1.72,1.72s-1.72-.77-1.72-1.72,.77-1.72,1.72-1.72,1.72,.77,1.72,1.72Z"/>
        <path class="cls-5" d="M17.98,39.77c0,.95-.77,1.72-1.72,1.72s-1.72-.77-1.72-1.72,.77-1.72,1.72-1.72,1.72,.77,1.72,1.72Z"/>
      </g>
    </g>
  </g>
</svg>