<?xml version="1.0" encoding="UTF-8"?>
<svg id="Layer_2" data-name="Layer 2" xmlns="http://www.w3.org/2000/svg" xmlns:xlink="http://www.w3.org/1999/xlink" viewBox="0 0 38.73 47.24">
  <defs>
    <style>
      .cls-1 {
        fill: none;
      }

      .cls-2 {
        clip-path: url(#clippath);
      }

      .cls-3 {
        fill: #fdc00f;
      }

      .cls-4 {
        fill: #16b6c6;
      }

      .cls-5 {
        fill: #fff;
        opacity: .3;
      }

      .cls-5, .cls-6 {
        isolation: isolate;
      }

      .cls-6 {
        opacity: .2;
      }
    </style>
    <clipPath id="clippath">
      <rect class="cls-1" width="38.73" height="47.24"/>
    </clipPath>
  </defs>
  <g id="Layer_1-2" data-name="Layer 1">
    <g class="cls-2">
      <g>
        <path class="cls-4" d="M37.66,6.88c2.01-3.44,.95-5.13-.96-6.22-1.89-1.08-3.9-1.16-5.92,2.29-1.32,2.27-1.63,6.23-2.66,8.38-.68,1.43-2.45,2.55-3.17,3.79-1.45,2.5-.69,3.72,.69,4.5,1.37,.78,2.83,.83,4.29-1.66,.73-1.24,.82-3.31,1.73-4.62,1.36-1.95,4.67-4.2,6-6.48h0Z"/>
        <path class="cls-5" d="M26.09,15.77c.73-1.24,2.49-2.36,3.17-3.79,1.03-2.15,1.34-6.1,2.66-8.38,1.8-3.1,3.61-3.35,5.33-2.59-.17-.12-.36-.24-.56-.36-1.89-1.08-3.9-1.16-5.92,2.29-1.32,2.27-1.63,6.23-2.66,8.38-.68,1.43-2.45,2.55-3.17,3.79-1.45,2.5-.69,3.72,.69,4.5,.2,.11,.39,.21,.6,.28-1-.79-1.4-2-.15-4.14h0Z"/>
        <path class="cls-4" d="M15.35,39.14c1.5-2.58,4.83-3.45,7.45-1.96,2.61,1.5,3.51,4.79,2.01,7.36-1.5,2.58-4.83,3.46-7.45,1.96-2.61-1.5-3.51-4.79-2.01-7.37h0Z"/>
        <path class="cls-5" d="M15.82,39.07c1.09-1.88,3.51-2.51,5.41-1.42,1.89,1.08,2.55,3.48,1.46,5.35-1.09,1.88-3.52,2.51-5.41,1.43-1.9-1.08-2.56-3.48-1.46-5.36Z"/>
        <path class="cls-3" d="M28.47,44.48c-.82-4.24,1.69-10.19,1.69-10.19l2.35-4.03c3.22-5.52,1.3-12.59-4.3-15.79-5.59-3.2-12.74-1.32-15.95,4.2l-2.35,4.03s-3.95,5.13-8.08,6.55c-2.23,.77-2.48,.74-.42,1.92l12.8,7.32,12.8,7.32c2.05,1.17,1.91,.98,1.46-1.33h0Z"/>
        <path class="cls-5" d="M12.75,24.88l2.83-4.84c2.16-3.71,5.81-6.06,9.78-6.72-4.98-1.32-10.41,.74-13.1,5.36l-2.35,4.03s-3.95,5.13-8.08,6.55c-2.23,.77-2.48,.74-.42,1.92l2.29,1.31c4.71-1.98,9.05-7.62,9.05-7.62h0Z"/>
        <path class="cls-6" d="M26.84,32.92l2.82-4.84c2.16-3.71,2.38-8.01,.99-11.75,3.64,3.61,4.56,9.31,1.86,13.92l-2.35,4.03s-2.51,5.96-1.69,10.2c.44,2.3,.59,2.5-1.46,1.33l-2.29-1.31c-.62-5.03,2.13-11.58,2.13-11.58h0Z"/>
      </g>
    </g>
  </g>
</svg>