<?xml version="1.0" encoding="UTF-8"?>
<svg id="Layer_2" data-name="Layer 2" xmlns="http://www.w3.org/2000/svg" xmlns:xlink="http://www.w3.org/1999/xlink" viewBox="0 0 41.98 47.54">
  <defs>
    <style>
      .cls-1 {
        fill: none;
      }

      .cls-2 {
        clip-path: url(#clippath);
      }

      .cls-3 {
        fill: #fdc00f;
      }

      .cls-4 {
        fill: #16b6c6;
      }

      .cls-5 {
        fill: #fff;
        isolation: isolate;
        opacity: .3;
      }
    </style>
    <clipPath id="clippath">
      <rect class="cls-1" width="41.98" height="47.54"/>
    </clipPath>
  </defs>
  <g id="Layer_1-2" data-name="Layer 1">
    <g class="cls-2">
      <g>
        <path class="cls-3" d="M20.99,47.54c-4.94,0-7.61-12.25-7.61-23.77S16.05,0,20.99,0s7.61,12.25,7.61,23.77-2.67,23.77-7.61,23.77ZM20.99,1.57c-2.86,0-6.04,9.12-6.04,22.2s3.19,22.2,6.04,22.2,6.04-9.12,6.04-22.2S23.85,1.57,20.99,1.57Z"/>
        <path class="cls-3" d="M37.14,37.48c-4.7,0-12.35-2.73-19.96-7.12-5.38-3.11-10.09-6.66-13.25-10C.51,16.75-.71,13.82,.4,11.88c.7-1.21,2.19-1.83,4.43-1.83,4.7,0,12.35,2.73,19.96,7.12,5.38,3.11,10.09,6.66,13.25,10,3.42,3.61,4.64,6.54,3.53,8.48-.7,1.21-2.19,1.83-4.43,1.83ZM4.84,11.62c-1.13,0-2.58,.18-3.08,1.04-.7,1.22,.53,3.69,3.31,6.62,3.06,3.23,7.65,6.69,12.9,9.72,7.38,4.26,14.73,6.91,19.17,6.91,1.13,0,2.58-.18,3.08-1.04,.7-1.22-.53-3.69-3.31-6.62-3.06-3.23-7.65-6.69-12.9-9.72-7.38-4.26-14.73-6.91-19.18-6.91h.01Z"/>
        <path class="cls-3" d="M4.83,37.48c-2.24,0-3.73-.61-4.43-1.82-2.47-4.28,6.8-12.71,16.78-18.48,7.61-4.39,15.25-7.12,19.96-7.12,2.24,0,3.73,.61,4.43,1.83,1.12,1.93-.1,4.86-3.53,8.48-3.17,3.34-7.87,6.89-13.25,10-7.61,4.39-15.26,7.12-19.96,7.12h0ZM37.14,11.62c-4.45,0-11.79,2.65-19.18,6.91C6.64,25.08,.33,32.4,1.76,34.87c.5,.86,1.95,1.04,3.07,1.04,4.45,0,11.79-2.65,19.18-6.91,5.25-3.03,9.83-6.48,12.9-9.72,2.77-2.93,4.01-5.4,3.31-6.62-.5-.86-1.95-1.04-3.07-1.04h-.01Z"/>
        <path class="cls-4" d="M16.07,23.77c0-2.72,2.2-4.92,4.92-4.92s4.92,2.2,4.92,4.92-2.2,4.92-4.92,4.92-4.92-2.2-4.92-4.92Z"/>
        <path class="cls-5" d="M16.95,23.02c0-1.76,1.43-3.19,3.19-3.19s3.19,1.43,3.19,3.19-1.43,3.19-3.19,3.19-3.19-1.43-3.19-3.19Z"/>
        <path class="cls-4" d="M8.58,10.92c0,1.28-1.03,2.31-2.31,2.31s-2.31-1.03-2.31-2.31,1.03-2.31,2.31-2.31,2.31,1.03,2.31,2.31Z"/>
        <path class="cls-4" d="M17.65,36.7c0,1.28-1.03,2.31-2.31,2.31s-2.31-1.03-2.31-2.31,1.03-2.31,2.31-2.31,2.31,1.03,2.31,2.31Z"/>
        <path class="cls-4" d="M32.64,12.1c0,1.28-1.03,2.31-2.31,2.31s-2.31-1.03-2.31-2.31,1.03-2.31,2.31-2.31,2.31,1.03,2.31,2.31Z"/>
        <path class="cls-5" d="M31.53,11.66c0,.87-.7,1.57-1.57,1.57s-1.57-.7-1.57-1.57,.7-1.57,1.57-1.57,1.57,.7,1.57,1.57Z"/>
        <path class="cls-5" d="M7.52,10.53c0,.87-.7,1.57-1.57,1.57s-1.57-.7-1.57-1.57,.7-1.57,1.57-1.57,1.57,.7,1.57,1.57Z"/>
        <path class="cls-5" d="M16.47,36.38c0,.87-.7,1.57-1.57,1.57s-1.57-.7-1.57-1.57,.7-1.57,1.57-1.57,1.57,.7,1.57,1.57Z"/>
      </g>
    </g>
  </g>
</svg>