<?xml version="1.0" encoding="UTF-8"?>
<svg id="Layer_2" data-name="Layer 2" xmlns="http://www.w3.org/2000/svg" viewBox="0 0 51.96 47.71">
  <defs>
    <style>
      .cls-1 {
        fill: #fff;
      }

      .cls-2 {
        fill: #fcd9c7;
      }

      .cls-3 {
        fill: #e66623;
      }

      .cls-4 {
        fill: #be451b;
      }

      .cls-5 {
        fill: #e35122;
      }

      .cls-6 {
        fill: #1e2414;
      }
    </style>
  </defs>
  <g id="Layer_1-2" data-name="Layer 1">
    <g>
      <path class="cls-3" d="M30.05,15.03C30.05,6.73,23.32,0,15.03,0S0,6.73,0,15.03v25.89c0,3.75,3.04,6.79,6.79,6.79H45.17c3.75,0,6.79-3.04,6.79-6.79v-13.38c0-4.07-3.3-7.37-7.37-7.37h-9.4c-2.84,0-5.14-2.3-5.14-5.14Z"/>
      <path class="cls-4" d="M7.37,28.9v13.21c0,1.71,1.39,3.1,3.1,3.1,1.44,0,2.65-.98,3-2.31,.03,0,.07,0,.11,0s.07,0,.11,0c.35,1.33,1.56,2.31,3,2.31,1.71,0,3.1-1.39,3.1-3.1,0,1.71,1.39,3.1,3.1,3.1,1.44,0,2.65-.98,3-2.31,.04,0,.07,0,.11,0s.07,0,.11,0c.35,1.33,1.56,2.31,3,2.31s2.65-.98,3-2.31c.04,0,.07,0,.11,0s.07,0,.11,0c.35,1.33,1.56,2.31,3,2.31s2.65-.98,3-2.31c.03,0,.07,0,.11,0s.07,0,.11,0c.35,1.33,1.56,2.31,3,2.31,1.71,0,3.1-1.39,3.1-3.1v-13.21H7.37Z"/>
      <path class="cls-2" d="M38.39,31.81H7.37v10.3c0,1.71,1.39,3.1,3.1,3.1,1.44,0,2.65-.98,3-2.31,.03,0,.07,0,.11,0s.07,0,.11,0c.35,1.33,1.56,2.31,3,2.31,1.71,0,3.1-1.39,3.1-3.1,0,1.71,1.39,3.1,3.1,3.1,1.44,0,2.65-.98,3-2.31,.04,0,.07,0,.11,0s.07,0,.11,0c.35,1.33,1.56,2.31,3,2.31s2.65-.98,3-2.31c.04,0,.07,0,.11,0s.07,0,.11,0c.35,1.33,1.56,2.31,3,2.31s2.65-.98,3-2.31c.03,0,.07,0,.11,0s.07,0,.11,0c.35,1.33,1.56,2.31,3,2.31,1.71,0,3.1-1.39,3.1-3.1v-10.3h-6.2Z"/>
      <path class="cls-1" d="M39.98,36.74v4.57c0,.84-.66,1.53-1.49,1.59,.35,1.33,1.56,2.31,3,2.31,1.71,0,3.1-1.39,3.1-3.1v-10.3h-6.2v3.34c.88,0,1.59,.71,1.59,1.59"/>
      <path class="cls-6" d="M39.98,41.31v-4.57c0-.88-.71-1.59-1.59-1.59s-1.59,.71-1.59,1.59v4.57c0,.84,.66,1.53,1.49,1.59,.03,0,.07,0,.11,0s.07,0,.11,0c.83-.05,1.49-.74,1.49-1.59Z"/>
      <path class="cls-1" d="M27.57,36.74v4.57c0,.84-.66,1.53-1.48,1.59,.35,1.33,1.56,2.31,3,2.31s2.65-.98,3-2.31c-.83-.05-1.48-.74-1.48-1.59v-4.57c0-.88,.71-1.59,1.59-1.59v-3.34h-6.2v3.34c.88,0,1.59,.71,1.59,1.59"/>
      <path class="cls-6" d="M27.57,41.31v-4.57c0-.88-.71-1.59-1.59-1.59s-1.59,.71-1.59,1.59v4.57c0,.84,.66,1.53,1.49,1.59,.04,0,.07,0,.11,0s.07,0,.11,0c.83-.05,1.48-.74,1.48-1.59Z"/>
      <path class="cls-6" d="M33.78,41.31v-4.57c0-.88-.71-1.59-1.59-1.59s-1.59,.71-1.59,1.59v4.57c0,.84,.66,1.53,1.48,1.59,.03,0,.07,0,.11,0s.07,0,.11,0c.83-.05,1.49-.74,1.49-1.59"/>
      <path class="cls-1" d="M15.16,36.74v4.57c0,.84-.66,1.53-1.49,1.59,.35,1.33,1.56,2.31,3,2.31,1.71,0,3.1-1.39,3.1-3.1v-10.3h-6.2v3.34c.88,0,1.59,.71,1.59,1.59"/>
      <path class="cls-6" d="M15.16,41.31v-4.57c0-.88-.71-1.59-1.59-1.59s-1.59,.71-1.59,1.59v4.57c0,.84,.66,1.53,1.49,1.59,.03,0,.07,0,.11,0s.07,0,.11,0c.83-.05,1.49-.74,1.49-1.59"/>
      <path class="cls-5" d="M44.59,20.17h-9.4c-2.84,0-5.14-2.3-5.14-5.14,0-8.3-6.73-15.03-15.03-15.03S0,6.73,0,15.03v25.89c0,3.75,3.04,6.79,6.79,6.79h.58v-1.74c-3.32,0-6-2.7-6-6.02V16.03C1.37,8.68,7.33,2.72,14.68,2.72s13.32,5.96,13.32,13.32c0,2.52,2.04,5.53,4.55,5.53h10.36c3.61,0,6.53,2.92,6.53,6.53v11.86c0,2.92-2.08,5.36-4.85,5.9v1.86h.58c3.75,0,6.79-3.04,6.79-6.79v-13.38c0-4.07-3.3-7.37-7.37-7.37"/>
    </g>
  </g>
</svg>