<?xml version="1.0" encoding="UTF-8"?>
<svg id="Layer_2" data-name="Layer 2" xmlns="http://www.w3.org/2000/svg" xmlns:xlink="http://www.w3.org/1999/xlink" viewBox="0 0 145.99 82.39">
  <defs>
    <style>
      .cls-1 {
        fill: none;
      }

      .cls-2 {
        clip-path: url(#clippath);
      }

      .cls-3 {
        fill: #fdc00f;
      }

      .cls-4 {
        fill: #fed96f;
      }

      .cls-5 {
        fill: #184f78;
      }

      .cls-6 {
        fill: #467293;
      }

      .cls-7 {
        isolation: isolate;
        opacity: .3;
      }
    </style>
    <clipPath id="clippath">
      <rect class="cls-1" width="145.99" height="82.39"/>
    </clipPath>
  </defs>
  <g id="Layer_1-2" data-name="Layer 1">
    <g class="cls-2">
      <g>
        <path class="cls-5" d="M34.24,31.43v37.53c0,4.29,30.16,13.43,38.76,13.43s38.76-9.15,38.76-13.43V31.43H34.24Z"/>
        <path class="cls-7" d="M34.24,48.82l38.75,14.63,38.76-14.63v-13.61H34.24v13.61Z"/>
        <path class="cls-5" d="M72.99,0L0,27.55l72.99,27.55,73-27.55L72.99,0Z"/>
        <path class="cls-6" d="M72.99,55.1L0,27.55v3.78l72.99,27.55,73-27.55v-3.78l-73,27.55Z"/>
        <path class="cls-3" d="M116.36,61.84h-3.25s-7.14,10.09-2.44,20.21h8.14c4.7-10.12-2.44-20.21-2.44-20.21h-.01Z"/>
        <path class="cls-4" d="M117.3,80.38c.17-.92,.09-2.04,.14-3.2,.03-.59,.02-1.18-.06-1.79-.05-.61-.1-1.22-.16-1.84-.03-.61-.17-1.21-.27-1.81-.11-.59-.21-1.17-.31-1.73-.29-1.09-.49-2.13-.79-2.98-.51-1.72-.98-2.78-.98-2.78,0,0,.4,1.11,.78,2.87,.23,.86,.35,1.92,.56,3.01,.06,.56,.12,1.14,.18,1.72,.05,.59,.15,1.18,.13,1.78,0,.6,.02,1.2,.02,1.78,.03,.59,0,1.16-.07,1.71-.14,1.09-.12,2.14-.35,2.98-.18,.79-.33,1.44-.43,1.93h1.35c.07-.47,.15-1.01,.25-1.67v.02Z"/>
        <path class="cls-4" d="M113.33,80.12c-.23-.84-.21-1.89-.35-2.98-.07-.55-.1-1.13-.07-1.71,0-.59,.02-1.19,.02-1.78-.02-.6,.08-1.19,.13-1.78,.06-.59,.12-1.17,.18-1.72,.21-1.1,.33-2.15,.56-3.01,.37-1.76,.77-2.87,.77-2.87,0,0-.48,1.06-.98,2.78-.3,.84-.5,1.88-.79,2.98-.1,.56-.21,1.14-.31,1.73-.09,.6-.24,1.19-.27,1.81-.05,.62-.11,1.23-.16,1.84-.07,.61-.08,1.21-.06,1.79,.06,1.16-.03,2.28,.14,3.2,.1,.65,.18,1.2,.25,1.67h1.35c-.11-.49-.26-1.14-.44-1.93l.03-.02Z"/>
        <path class="cls-4" d="M119.6,78.92c.1-.58,.15-1.2,.14-1.84,.04-.64-.01-1.3-.08-1.96-.03-.67-.2-1.31-.31-1.97-.56-2.6-1.69-4.88-2.61-6.45-.95-1.56-1.71-2.44-1.71-2.44,0,0,.7,.96,1.53,2.6,.81,1.64,1.75,3.99,2.11,6.49,.06,.63,.18,1.24,.16,1.86,.02,.62,.03,1.22-.05,1.8-.03,.58-.11,1.13-.24,1.63-.09,.52-.2,.99-.37,1.41-.25,.86-.57,1.52-.81,1.96-.01,.02-.01,.03-.02,.04h1.45c.1-.21,.16-.42,.25-.64,.08-.28,.17-.54,.24-.87,.15-.48,.24-1.03,.31-1.62h0Z"/>
        <path class="cls-4" d="M114.73,64.26l-.66,17.79h1.32l-.66-17.79Z"/>
        <path class="cls-4" d="M112.09,82.01c-.24-.44-.55-1.1-.81-1.96-.17-.42-.27-.89-.37-1.41-.13-.51-.21-1.05-.24-1.63-.08-.58-.07-1.18-.05-1.8-.02-.62,.11-1.23,.16-1.86,.36-2.5,1.3-4.85,2.11-6.49,.83-1.64,1.53-2.6,1.53-2.6,0,0-.76,.88-1.71,2.44-.93,1.57-2.05,3.84-2.61,6.45-.11,.66-.28,1.3-.31,1.97-.07,.66-.12,1.32-.08,1.96-.01,.64,.04,1.26,.14,1.84,.07,.59,.15,1.14,.3,1.62,.07,.33,.16,.59,.24,.87,.09,.21,.15,.42,.25,.63h1.45s-.01-.02-.02-.04h.02Z"/>
        <path class="cls-4" d="M111.05,61.84c0-2.03,1.65-3.68,3.68-3.68s3.68,1.65,3.68,3.68-1.65,3.68-3.68,3.68-3.68-1.65-3.68-3.68Z"/>
        <path class="cls-7" d="M72.99,34.43c6.41,0,11.6-3.08,11.6-6.88s-5.19-6.88-11.6-6.88-11.6,3.08-11.6,6.88,5.19,6.88,11.6,6.88Z"/>
        <path class="cls-3" d="M84.36,28.94c-.39,1.13-1.25,2.16-2.45,3.01l-.06,.19,30.99,9.16v20.54h3.78v-23.36l-32.26-9.54Z"/>
        <path class="cls-5" d="M61.39,26.6c0-3.27,4.47-5.92,9.99-5.92s9.99,2.65,9.99,5.92-4.47,5.92-9.99,5.92-9.99-2.65-9.99-5.92Z"/>
      </g>
    </g>
  </g>
</svg>